<svg xmlns="http://www.w3.org/2000/svg" width="920" height="430" viewBox="0 0 920 430" role="img" aria-labelledby="timeline-title timeline-desc">
  <title id="timeline-title">Comment and danmaku collection growth over time</title>
  <desc id="timeline-desc">Cumulative growth lines for total corpus records, comments, and danmaku across recorded harvest runs.</desc>
  <style>
    .bg { fill: #f3ead8; }
    .panel { fill: #fffaf0; stroke: #27231c; stroke-width: 2; }
    .title { font: 700 28px Georgia, 'Times New Roman', serif; fill: #27231c; }
    .sub { font: 14px ui-monospace, SFMono-Regular, Consolas, monospace; fill: #6c6355; }
    .axis { font: 12px ui-monospace, SFMono-Regular, Consolas, monospace; fill: #6c6355; }
    .label { font: 13px ui-monospace, SFMono-Regular, Consolas, monospace; fill: #5d5548; }
  </style>
  <rect class="bg" width="920" height="430" rx="24"/>
  <rect class="panel" x="18" y="18" width="884" height="394" rx="20"/>
  <text x="40" y="62" class="title">Corpus Growth Over Time</text>
  <text x="40" y="88" class="sub">auto-generated from corpus run history on 2026-06-19</text>
  <g>
    
    <line x1="72" y1="322.0" x2="820" y2="322.0" stroke="#d7ccb8" stroke-width="1"/>
    <text x="58" y="326.0" class="axis" text-anchor="end">0</text>
    <line x1="72" y1="273.0" x2="820" y2="273.0" stroke="#d7ccb8" stroke-width="1"/>
    <text x="58" y="277.0" class="axis" text-anchor="end">50,000</text>
    <line x1="72" y1="224.0" x2="820" y2="224.0" stroke="#d7ccb8" stroke-width="1"/>
    <text x="58" y="228.0" class="axis" text-anchor="end">100,000</text>
    <line x1="72" y1="175.0" x2="820" y2="175.0" stroke="#d7ccb8" stroke-width="1"/>
    <text x="58" y="179.0" class="axis" text-anchor="end">150,000</text>
    <line x1="72" y1="126.0" x2="820" y2="126.0" stroke="#d7ccb8" stroke-width="1"/>
    <text x="58" y="130.0" class="axis" text-anchor="end">200,000</text>
    <line x1="72" y1="322" x2="820" y2="322" stroke="#27231c" stroke-width="2"/>
    <line x1="72" y1="126" x2="72" y2="322" stroke="#27231c" stroke-width="2"/>
    <polyline points="72.0,322.0 73.6,321.7 75.3,321.6 76.9,321.5 78.6,321.4 80.2,320.7 81.9,317.2 83.5,317.2 85.2,317.1 86.8,317.0 88.5,317.0 90.1,317.0 91.8,317.0 93.4,316.9 95.1,316.8 96.7,316.8 98.4,315.7 100.0,315.7 101.7,314.9 103.3,314.9 105.0,314.0 106.6,313.8 108.2,313.1 109.9,313.0 111.5,313.0 113.2,312.7 114.8,312.7 116.5,311.4 118.1,311.1 119.8,310.9 121.4,306.0 123.1,305.8 124.7,305.8 126.4,303.3 128.0,303.1 129.7,298.6 131.3,298.5 133.0,296.8 134.6,296.7 136.3,294.4 137.9,292.8 139.6,292.5 141.2,287.1 142.8,287.1 144.5,287.0 146.1,285.1 147.8,285.0 149.4,285.0 151.1,285.0 152.7,285.0 154.4,285.0 156.0,285.0 157.7,284.5 159.3,284.5 161.0,284.3 162.6,284.3 164.3,284.3 165.9,284.0 167.6,284.0 169.2,283.9 170.9,283.9 172.5,283.9 174.1,283.9 175.8,283.6 177.4,283.3 179.1,283.3 180.7,283.1 182.4,282.2 184.0,282.2 185.7,282.0 187.3,281.5 189.0,281.4 190.6,281.4 192.3,281.4 193.9,281.4 195.6,280.8 197.2,280.8 198.9,280.7 200.5,280.7 202.2,280.6 203.8,280.4 205.5,280.4 207.1,280.4 208.7,280.0 210.4,280.0 212.0,280.0 213.7,280.0 215.3,280.0 217.0,280.0 218.6,279.9 220.3,279.8 221.9,278.7 223.6,278.5 225.2,277.3 226.9,277.3 228.5,277.2 230.2,277.2 231.8,277.2 233.5,277.1 235.1,276.6 236.8,276.5 238.4,276.5 240.1,276.4 241.7,275.7 243.3,275.6 245.0,275.6 246.6,275.5 248.3,275.5 249.9,275.5 251.6,275.5 253.2,275.5 254.9,275.0 256.5,275.0 258.2,275.0 259.8,274.9 261.5,274.8 263.1,274.7 264.8,274.7 266.4,273.9 268.1,273.8 269.7,273.4 271.4,273.1 273.0,272.9 274.7,272.9 276.3,272.9 277.9,272.7 279.6,272.6 281.2,272.2 282.9,272.0 284.5,271.9 286.2,271.9 287.8,271.9 289.5,270.4 291.1,270.3 292.8,270.3 294.4,270.2 296.1,269.8 297.7,269.3 299.4,269.3 301.0,269.3 302.7,269.2 304.3,269.2 306.0,269.1 307.6,269.1 309.3,269.1 310.9,269.1 312.5,269.0 314.2,269.0 315.8,269.0 317.5,268.9 319.1,268.1 320.8,268.0 322.4,267.9 324.1,267.7 325.7,267.6 327.4,267.4 329.0,267.4 330.7,265.9 332.3,265.8 334.0,265.8 335.6,265.7 337.3,265.6 338.9,265.1 340.6,264.2 342.2,262.6 343.9,259.7 345.5,258.6 347.1,256.9 348.8,256.9 350.4,256.8 352.1,256.8 353.7,256.7 355.4,256.7 357.0,253.7 358.7,253.7 360.3,253.7 362.0,253.7 363.6,253.7 365.3,253.3 366.9,253.3 368.6,253.3 370.2,253.1 371.9,252.2 373.5,252.0 375.2,251.2 376.8,250.8 378.4,246.5 380.1,246.4 381.7,246.4 383.4,246.3 385.0,244.3 386.7,243.7 388.3,243.6 390.0,243.2 391.6,243.1 393.3,240.0 394.9,240.0 396.6,239.8 398.2,239.3 399.9,239.2 401.5,239.2 403.2,239.2 404.8,239.2 406.5,239.2 408.1,239.1 409.8,238.0 411.4,237.9 413.0,237.8 414.7,237.8 416.3,237.8 418.0,237.7 419.6,237.7 421.3,237.7 422.9,237.7 424.6,237.7 426.2,237.7 427.9,237.6 429.5,236.3 431.2,232.9 432.8,232.9 434.5,232.8 436.1,232.8 437.8,232.7 439.4,232.7 441.1,232.7 442.7,232.7 444.4,232.6 446.0,232.6 447.6,232.6 449.3,232.6 450.9,232.4 452.6,232.4 454.2,231.5 455.9,231.5 457.5,231.4 459.2,231.2 460.8,230.6 462.5,229.9 464.1,229.5 465.8,229.0 467.4,228.9 469.1,228.1 470.7,227.1 472.4,227.1 474.0,227.0 475.7,226.7 477.3,226.5 479.0,226.3 480.6,226.1 482.2,226.0 483.9,225.5 485.5,225.0 487.2,225.0 488.8,224.2 490.5,224.2 492.1,223.7 493.8,223.6 495.4,223.1 497.1,223.1 498.7,222.6 500.4,222.1 502.0,221.6 503.7,221.5 505.3,221.1 507.0,220.8 508.6,220.4 510.3,220.3 511.9,219.8 513.6,219.5 515.2,219.0 516.8,218.8 518.5,218.3 520.1,218.2 521.8,217.7 523.4,217.3 525.1,216.8 526.7,216.2 528.4,215.7 530.0,215.7 531.7,215.2 533.3,214.8 535.0,214.3 536.6,214.2 538.3,213.7 539.9,212.7 541.6,211.2 543.2,211.0 544.9,210.5 546.5,209.8 548.1,209.7 549.8,209.4 551.4,208.8 553.1,208.8 554.7,208.8 556.4,208.0 558.0,208.0 559.7,208.0 561.3,207.8 563.0,206.6 564.6,204.7 566.3,204.6 567.9,204.5 569.6,204.4 571.2,204.3 572.9,203.7 574.5,203.6 576.2,202.0 577.8,201.4 579.5,201.1 581.1,201.0 582.7,200.6 584.4,200.6 586.0,200.3 587.7,200.1 589.3,200.1 591.0,200.1 592.6,199.6 594.3,199.2 595.9,199.0 597.6,198.9 599.2,196.6 600.9,196.3 602.5,195.8 604.2,195.5 605.8,195.0 607.5,194.8 609.1,194.4 610.8,194.4 612.4,193.6 614.1,193.4 615.7,193.4 617.3,193.1 619.0,192.7 620.6,192.6 622.3,192.1 623.9,191.7 625.6,191.6 627.2,191.1 628.9,191.0 630.5,190.8 632.2,190.5 633.8,190.3 635.5,190.3 637.1,189.6 638.8,189.5 640.4,189.1 642.1,189.0 643.7,188.9 645.4,187.6 647.0,186.6 648.7,186.5 650.3,186.2 651.9,186.2 653.6,186.0 655.2,185.6 656.9,185.4 658.5,185.3 660.2,184.9 661.8,184.8 663.5,184.6 665.1,184.6 666.8,184.4 668.4,183.5 670.1,183.5 671.7,183.4 673.4,182.8 675.0,181.7 676.7,181.1 678.3,180.8 680.0,178.2 681.6,176.4 683.3,175.9 684.9,175.7 686.5,175.1 688.2,175.0 689.8,174.9 691.5,174.6 693.1,174.1 694.8,174.0 696.4,173.7 698.1,173.4 699.7,173.0 701.4,173.0 703.0,172.7 704.7,172.3 706.3,172.2 708.0,171.7 709.6,171.6 711.3,171.0 712.9,169.3 714.6,169.3 716.2,169.0 717.9,168.5 719.5,168.0 721.1,167.6 722.8,167.1 724.4,167.0 726.1,166.0 727.7,166.0 729.4,165.0 731.0,165.0 732.7,164.5 734.3,164.4 736.0,163.8 737.6,163.0 739.3,162.9 740.9,162.4 742.6,162.2 744.2,162.2 745.9,161.8 747.5,161.7 749.2,161.7 750.8,161.3 752.4,161.2 754.1,161.1 755.7,160.8 757.4,160.7 759.0,160.7 760.7,160.3 762.3,160.3 764.0,160.2 765.6,159.9 767.3,158.1 768.9,158.0 770.6,158.0 772.2,157.8 773.9,157.7 775.5,157.6 777.2,157.3 778.8,157.1 780.5,157.0 782.1,156.9 783.8,156.9 785.4,156.8 787.0,156.7 788.7,156.7 790.3,156.6 792.0,156.3 793.6,156.3 795.3,156.3 796.9,156.2 798.6,156.2 800.2,156.2 801.9,156.2 803.5,156.1 805.2,155.5 806.8,154.9 808.5,154.0 810.1,153.1 811.8,152.1 813.4,151.8 815.1,147.7 816.7,147.5 818.4,146.4 820.0,146.4" fill="none" stroke="#27231c" stroke-width="4" stroke-linecap="round" stroke-linejoin="round"/>
    <polyline points="72.0,322.0 73.6,322.0 75.3,322.0 76.9,322.0 78.6,322.0 80.2,321.9 81.9,321.7 83.5,321.7 85.2,321.7 86.8,321.7 88.5,321.7 90.1,321.7 91.8,321.7 93.4,321.7 95.1,321.7 96.7,321.7 98.4,321.7 100.0,321.7 101.7,321.6 103.3,321.6 105.0,321.6 106.6,321.6 108.2,321.5 109.9,321.5 111.5,321.5 113.2,321.5 114.8,321.5 116.5,321.4 118.1,321.4 119.8,321.4 121.4,321.1 123.1,321.1 124.7,321.1 126.4,321.0 128.0,321.0 129.7,320.7 131.3,320.7 133.0,320.6 134.6,320.6 136.3,320.5 137.9,320.4 139.6,320.4 141.2,320.1 142.8,320.1 144.5,320.1 146.1,320.0 147.8,320.0 149.4,320.0 151.1,320.0 152.7,320.0 154.4,320.0 156.0,320.0 157.7,319.9 159.3,319.9 161.0,319.9 162.6,319.9 164.3,319.9 165.9,319.9 167.6,319.9 169.2,319.9 170.9,319.9 172.5,319.9 174.1,319.9 175.8,319.9 177.4,319.9 179.1,319.9 180.7,319.9 182.4,319.8 184.0,319.8 185.7,319.8 187.3,319.8 189.0,319.8 190.6,319.8 192.3,319.8 193.9,319.8 195.6,319.7 197.2,319.7 198.9,319.7 200.5,319.7 202.2,319.7 203.8,319.7 205.5,319.7 207.1,319.7 208.7,319.7 210.4,319.7 212.0,319.7 213.7,319.7 215.3,319.7 217.0,319.7 218.6,319.7 220.3,319.7 221.9,319.6 223.6,319.6 225.2,319.5 226.9,319.5 228.5,319.5 230.2,319.5 231.8,319.5 233.5,319.5 235.1,319.5 236.8,319.5 238.4,319.5 240.1,319.5 241.7,319.4 243.3,319.4 245.0,319.4 246.6,319.4 248.3,319.4 249.9,319.4 251.6,319.4 253.2,319.4 254.9,319.4 256.5,319.4 258.2,319.4 259.8,319.4 261.5,319.4 263.1,319.4 264.8,319.4 266.4,319.3 268.1,319.3 269.7,319.3 271.4,319.3 273.0,319.3 274.7,319.3 276.3,319.3 277.9,319.3 279.6,319.3 281.2,319.3 282.9,319.2 284.5,319.2 286.2,319.2 287.8,319.2 289.5,319.2 291.1,319.1 292.8,319.1 294.4,319.1 296.1,319.1 297.7,319.1 299.4,319.1 301.0,319.1 302.7,319.1 304.3,319.1 306.0,319.1 307.6,319.1 309.3,319.1 310.9,319.1 312.5,319.1 314.2,319.1 315.8,319.1 317.5,319.1 319.1,319.0 320.8,319.0 322.4,319.0 324.1,319.0 325.7,319.0 327.4,319.0 329.0,319.0 330.7,318.9 332.3,318.9 334.0,318.9 335.6,318.9 337.3,318.9 338.9,318.9 340.6,318.8 342.2,318.7 343.9,318.6 345.5,318.5 347.1,318.4 348.8,318.4 350.4,318.4 352.1,318.4 353.7,318.4 355.4,318.4 357.0,318.2 358.7,318.2 360.3,318.2 362.0,318.2 363.6,318.2 365.3,318.2 366.9,318.2 368.6,318.2 370.2,318.2 371.9,318.2 373.5,318.1 375.2,318.1 376.8,318.1 378.4,317.8 380.1,317.8 381.7,317.8 383.4,317.8 385.0,317.7 386.7,317.7 388.3,317.7 390.0,317.7 391.6,317.7 393.3,317.5 394.9,317.5 396.6,317.5 398.2,317.0 399.9,317.0 401.5,317.0 403.2,317.0 404.8,317.0 406.5,317.0 408.1,317.0 409.8,316.9 411.4,316.9 413.0,316.9 414.7,316.9 416.3,316.9 418.0,316.9 419.6,316.9 421.3,316.9 422.9,316.9 424.6,316.9 426.2,316.9 427.9,316.9 429.5,316.8 431.2,316.6 432.8,316.6 434.5,316.6 436.1,316.6 437.8,316.6 439.4,316.6 441.1,316.6 442.7,316.6 444.4,316.6 446.0,316.6 447.6,316.6 449.3,316.6 450.9,316.6 452.6,316.6 454.2,315.7 455.9,315.7 457.5,315.7 459.2,315.7 460.8,315.7 462.5,315.6 464.1,315.6 465.8,315.6 467.4,315.6 469.1,315.6 470.7,314.6 472.4,314.6 474.0,314.6 475.7,314.6 477.3,314.6 479.0,314.6 480.6,314.6 482.2,314.6 483.9,314.5 485.5,314.5 487.2,314.5 488.8,314.5 490.5,314.5 492.1,314.0 493.8,314.0 495.4,313.5 497.1,313.5 498.7,313.0 500.4,312.9 502.0,312.5 503.7,312.5 505.3,312.0 507.0,312.0 508.6,311.5 510.3,311.5 511.9,311.0 513.6,310.9 515.2,310.5 516.8,310.4 518.5,310.0 520.1,310.0 521.8,309.5 523.4,309.4 525.1,308.9 526.7,308.9 528.4,308.4 530.0,308.4 531.7,307.9 533.3,307.9 535.0,307.4 536.6,307.4 538.3,306.9 539.9,306.9 541.6,306.8 543.2,306.8 544.9,306.7 546.5,306.7 548.1,306.7 549.8,306.7 551.4,306.7 553.1,306.7 554.7,306.7 556.4,306.6 558.0,306.6 559.7,306.6 561.3,306.6 563.0,306.5 564.6,306.4 566.3,306.4 567.9,306.4 569.6,306.4 571.2,306.4 572.9,306.4 574.5,306.4 576.2,306.3 577.8,306.2 579.5,306.2 581.1,306.2 582.7,306.2 584.4,306.2 586.0,306.2 587.7,306.2 589.3,306.2 591.0,306.2 592.6,306.1 594.3,306.1 595.9,306.1 597.6,306.1 599.2,306.0 600.9,306.0 602.5,305.9 604.2,305.9 605.8,305.9 607.5,305.9 609.1,305.9 610.8,305.9 612.4,305.8 614.1,305.8 615.7,305.8 617.3,305.8 619.0,305.8 620.6,305.8 622.3,305.7 623.9,305.7 625.6,305.7 627.2,305.7 628.9,305.7 630.5,305.7 632.2,305.6 633.8,305.6 635.5,305.6 637.1,305.6 638.8,305.6 640.4,305.6 642.1,305.6 643.7,305.6 645.4,305.5 647.0,305.4 648.7,305.4 650.3,305.4 651.9,305.4 653.6,305.4 655.2,305.4 656.9,305.4 658.5,305.4 660.2,305.3 661.8,305.3 663.5,305.3 665.1,305.3 666.8,305.3 668.4,305.3 670.1,305.3 671.7,305.3 673.4,305.2 675.0,305.2 676.7,305.1 678.3,305.1 680.0,305.0 681.6,304.9 683.3,304.8 684.9,304.8 686.5,304.8 688.2,304.8 689.8,304.8 691.5,304.8 693.1,304.7 694.8,304.7 696.4,304.7 698.1,304.7 699.7,304.7 701.4,304.7 703.0,304.7 704.7,304.6 706.3,304.6 708.0,304.6 709.6,304.6 711.3,304.6 712.9,304.5 714.6,304.5 716.2,304.5 717.9,304.4 719.5,304.4 721.1,304.4 722.8,304.4 724.4,304.3 726.1,304.3 727.7,304.3 729.4,304.2 731.0,304.2 732.7,304.2 734.3,304.2 736.0,304.2 737.6,304.1 739.3,304.1 740.9,304.1 742.6,304.1 744.2,304.1 745.9,304.1 747.5,304.1 749.2,304.1 750.8,304.0 752.4,304.0 754.1,304.0 755.7,304.0 757.4,304.0 759.0,304.0 760.7,304.0 762.3,304.0 764.0,304.0 765.6,304.0 767.3,303.9 768.9,303.9 770.6,303.8 772.2,303.8 773.9,303.8 775.5,303.8 777.2,303.8 778.8,303.8 780.5,303.8 782.1,303.8 783.8,303.8 785.4,303.8 787.0,303.8 788.7,303.8 790.3,303.8 792.0,303.8 793.6,303.8 795.3,303.8 796.9,303.8 798.6,303.7 800.2,303.7 801.9,303.7 803.5,303.7 805.2,303.7 806.8,303.7 808.5,302.8 810.1,301.9 811.8,300.9 813.4,300.9 815.1,296.9 816.7,296.9 818.4,296.8 820.0,296.8" fill="none" stroke="#8c5f32" stroke-width="4" stroke-linecap="round" stroke-linejoin="round"/>
    <polyline points="72.0,322.0 73.6,321.7 75.3,321.7 76.9,321.5 78.6,321.4 80.2,320.8 81.9,317.4 83.5,317.4 85.2,317.4 86.8,317.3 88.5,317.3 90.1,317.3 91.8,317.3 93.4,317.2 95.1,317.1 96.7,317.1 98.4,316.0 100.0,316.0 101.7,315.3 103.3,315.3 105.0,314.5 106.6,314.3 108.2,313.6 109.9,313.5 111.5,313.5 113.2,313.2 114.8,313.2 116.5,312.0 118.1,311.7 119.8,311.5 121.4,306.9 123.1,306.7 124.7,306.7 126.4,304.3 128.0,304.1 129.7,299.9 131.3,299.8 133.0,298.2 134.6,298.1 136.3,295.9 137.9,294.5 139.6,294.1 141.2,289.0 142.8,289.0 144.5,288.9 146.1,287.1 147.8,287.1 149.4,287.1 151.1,287.1 152.7,287.1 154.4,287.1 156.0,287.1 157.7,286.6 159.3,286.6 161.0,286.4 162.6,286.3 164.3,286.3 165.9,286.1 167.6,286.1 169.2,286.0 170.9,286.0 172.5,286.0 174.1,286.0 175.8,285.7 177.4,285.5 179.1,285.4 180.7,285.2 182.4,284.4 184.0,284.4 185.7,284.2 187.3,283.7 189.0,283.7 190.6,283.6 192.3,283.6 193.9,283.6 195.6,283.0 197.2,283.0 198.9,283.0 200.5,283.0 202.2,282.9 203.8,282.7 205.5,282.7 207.1,282.7 208.7,282.3 210.4,282.3 212.0,282.3 213.7,282.3 215.3,282.3 217.0,282.3 218.6,282.2 220.3,282.1 221.9,281.1 223.6,280.9 225.2,279.8 226.9,279.7 228.5,279.7 230.2,279.6 231.8,279.6 233.5,279.6 235.1,279.1 236.8,279.0 238.4,279.0 240.1,278.9 241.7,278.2 243.3,278.2 245.0,278.1 246.6,278.1 248.3,278.1 249.9,278.1 251.6,278.0 253.2,278.0 254.9,277.6 256.5,277.6 258.2,277.5 259.8,277.5 261.5,277.4 263.1,277.4 264.8,277.3 266.4,276.5 268.1,276.5 269.7,276.1 271.4,275.8 273.0,275.6 274.7,275.6 276.3,275.6 277.9,275.4 279.6,275.4 281.2,275.0 282.9,274.7 284.5,274.7 286.2,274.7 287.8,274.6 289.5,273.2 291.1,273.2 292.8,273.1 294.4,273.1 296.1,272.7 297.7,272.2 299.4,272.2 301.0,272.2 302.7,272.1 304.3,272.1 306.0,272.0 307.6,272.0 309.3,272.0 310.9,272.0 312.5,271.9 314.2,271.9 315.8,271.9 317.5,271.8 319.1,271.1 320.8,271.0 322.4,270.9 324.1,270.6 325.7,270.6 327.4,270.4 329.0,270.4 330.7,269.0 332.3,268.9 334.0,268.9 335.6,268.8 337.3,268.7 338.9,268.2 340.6,267.4 342.2,265.8 343.9,263.2 345.5,262.1 347.1,260.5 348.8,260.5 350.4,260.4 352.1,260.4 353.7,260.3 355.4,260.3 357.0,257.5 358.7,257.5 360.3,257.5 362.0,257.4 363.6,257.4 365.3,257.1 366.9,257.0 368.6,257.0 370.2,256.9 371.9,256.0 373.5,255.9 375.2,255.1 376.8,254.7 378.4,250.6 380.1,250.6 381.7,250.5 383.4,250.4 385.0,248.6 386.7,248.0 388.3,247.9 390.0,247.6 391.6,247.5 393.3,244.5 394.9,244.5 396.6,244.3 398.2,244.3 399.9,244.3 401.5,244.2 403.2,244.2 404.8,244.2 406.5,244.2 408.1,244.2 409.8,243.1 411.4,243.0 413.0,242.9 414.7,242.9 416.3,242.9 418.0,242.9 419.6,242.8 421.3,242.8 422.9,242.8 424.6,242.8 426.2,242.8 427.9,242.7 429.5,241.5 431.2,238.3 432.8,238.2 434.5,238.2 436.1,238.2 437.8,238.1 439.4,238.1 441.1,238.1 442.7,238.1 444.4,238.0 446.0,238.0 447.6,238.0 449.3,238.0 450.9,237.8 452.6,237.8 454.2,237.8 455.9,237.7 457.5,237.7 459.2,237.5 460.8,236.9 462.5,236.2 464.1,235.9 465.8,235.4 467.4,235.3 469.1,234.5 470.7,234.5 472.4,234.4 474.0,234.4 475.7,234.2 477.3,233.9 479.0,233.8 480.6,233.6 482.2,233.5 483.9,233.0 485.5,232.5 487.2,232.5 488.8,231.7 490.5,231.7 492.1,231.7 493.8,231.7 495.4,231.7 497.1,231.6 498.7,231.6 500.4,231.2 502.0,231.2 503.7,231.1 505.3,231.1 507.0,230.9 508.6,230.9 510.3,230.9 511.9,230.9 513.6,230.5 515.2,230.5 516.8,230.4 518.5,230.4 520.1,230.2 521.8,230.2 523.4,229.8 525.1,229.8 526.7,229.3 528.4,229.3 530.0,229.3 531.7,229.3 533.3,228.9 535.0,228.9 536.6,228.8 538.3,228.8 539.9,227.8 541.6,226.4 543.2,226.3 544.9,225.8 546.5,225.1 548.1,225.0 549.8,224.7 551.4,224.2 553.1,224.2 554.7,224.1 556.4,223.4 558.0,223.4 559.7,223.4 561.3,223.2 563.0,222.0 564.6,220.3 566.3,220.1 567.9,220.1 569.6,219.9 571.2,219.9 572.9,219.3 574.5,219.2 576.2,217.7 577.8,217.1 579.5,216.8 581.1,216.7 582.7,216.4 584.4,216.4 586.0,216.1 587.7,216.0 589.3,215.9 591.0,215.9 592.6,215.5 594.3,215.1 595.9,214.9 597.6,214.8 599.2,212.6 600.9,212.3 602.5,211.8 604.2,211.6 605.8,211.1 607.5,210.9 609.1,210.5 610.8,210.5 612.4,209.8 614.1,209.6 615.7,209.6 617.3,209.3 619.0,209.0 620.6,208.8 622.3,208.4 623.9,208.0 625.6,207.9 627.2,207.4 628.9,207.3 630.5,207.1 632.2,206.9 633.8,206.7 635.5,206.7 637.1,206.0 638.8,205.9 640.4,205.5 642.1,205.4 643.7,205.4 645.4,204.1 647.0,203.1 648.7,203.1 650.3,202.8 651.9,202.8 653.6,202.6 655.2,202.2 656.9,202.0 658.5,201.9 660.2,201.5 661.8,201.5 663.5,201.3 665.1,201.3 666.8,201.1 668.4,200.2 670.1,200.2 671.7,200.1 673.4,199.6 675.0,198.6 676.7,197.9 678.3,197.7 680.0,195.2 681.6,193.6 683.3,193.0 684.9,192.8 686.5,192.3 688.2,192.2 689.8,192.1 691.5,191.8 693.1,191.4 694.8,191.2 696.4,191.0 698.1,190.7 699.7,190.3 701.4,190.3 703.0,190.1 704.7,189.6 706.3,189.5 708.0,189.1 709.6,189.0 711.3,188.4 712.9,186.8 714.6,186.8 716.2,186.5 717.9,186.1 719.5,185.6 721.1,185.2 722.8,184.7 724.4,184.7 726.1,183.7 727.7,183.7 729.4,182.8 731.0,182.7 732.7,182.3 734.3,182.2 736.0,181.7 737.6,180.9 739.3,180.8 740.9,180.3 742.6,180.1 744.2,180.1 745.9,179.7 747.5,179.7 749.2,179.6 750.8,179.2 752.4,179.2 754.1,179.1 755.7,178.8 757.4,178.7 759.0,178.7 760.7,178.4 762.3,178.3 764.0,178.2 765.6,178.0 767.3,176.2 768.9,176.2 770.6,176.1 772.2,176.0 773.9,175.8 775.5,175.8 777.2,175.5 778.8,175.3 780.5,175.2 782.1,175.2 783.8,175.1 785.4,175.0 787.0,174.9 788.7,174.9 790.3,174.9 792.0,174.6 793.6,174.6 795.3,174.5 796.9,174.5 798.6,174.4 800.2,174.4 801.9,174.4 803.5,174.3 805.2,173.8 806.8,173.2 808.5,173.2 810.1,173.2 811.8,173.2 813.4,172.9 815.1,172.9 816.7,172.6 818.4,171.6 820.0,171.6" fill="none" stroke="#3f7558" stroke-width="4" stroke-linecap="round" stroke-linejoin="round"/>
    <text x="72" y="348" class="axis">06-17 03:59</text>
    <text x="820" y="348" class="axis" text-anchor="end">06-19 06:48</text>
  </g>
  <g>
    <rect x="72" y="360" width="16" height="16" rx="3" fill="#27231c"/><text x="96" y="373" class="label">Total 179,193</text>
    <rect x="254" y="360" width="16" height="16" rx="3" fill="#8c5f32"/><text x="278" y="373" class="label">Comments 25,711</text>
    <rect x="476" y="360" width="16" height="16" rx="3" fill="#3f7558"/><text x="500" y="373" class="label">Danmaku 153,482</text>
    <text x="720" y="373" class="label">Runs: 455</text>
  </g>
</svg>
