<svg xmlns="http://www.w3.org/2000/svg" width="920" height="430" viewBox="0 0 920 430" role="img" aria-labelledby="timeline-title timeline-desc">
  <title id="timeline-title">Comment and danmaku collection growth over time</title>
  <desc id="timeline-desc">Cumulative growth lines for total and danmaku (left scale) and comments (right scale) across recorded harvest runs.</desc>
  <style>
    .bg { fill: #f3ead8; }
    .panel { fill: #fffaf0; stroke: #27231c; stroke-width: 2; }
    .title { font: 700 28px Georgia, 'Times New Roman', serif; fill: #27231c; }
    .sub { font: 14px ui-monospace, SFMono-Regular, Consolas, monospace; fill: #6c6355; }
    .axis { font: 12px ui-monospace, SFMono-Regular, Consolas, monospace; fill: #6c6355; }
    .axis-right { font: 12px ui-monospace, SFMono-Regular, Consolas, monospace; fill: #8c5f32; }
    .label { font: 13px ui-monospace, SFMono-Regular, Consolas, monospace; fill: #5d5548; }
    .legend-text { font: 12px ui-monospace, SFMono-Regular, Consolas, monospace; fill: #5d5548; }
  </style>
  <rect class="bg" width="920" height="430" rx="24"/>
  <rect class="panel" x="18" y="18" width="884" height="394" rx="20"/>
  <text x="40" y="62" class="title">Corpus Growth Over Time</text>
  <text x="40" y="88" class="sub">auto-generated from corpus run history on 2026-07-07 | 52 points shown (of 456 total)</text>
  <g>
    <line x1="92" y1="306.0" x2="768" y2="306.0" stroke="#d7ccb8" stroke-width="1" stroke-dasharray="4,4"/>
    <text x="774" y="310.0" class="axis-right" text-anchor="start">0</text>
    <line x1="92" y1="208.0" x2="768" y2="208.0" stroke="#d7ccb8" stroke-width="1" stroke-dasharray="4,4"/>
    <text x="774" y="212.0" class="axis-right" text-anchor="start">14K</text>
    <line x1="92" y1="110.0" x2="768" y2="110.0" stroke="#d7ccb8" stroke-width="1" stroke-dasharray="4,4"/>
    <text x="774" y="114.0" class="axis-right" text-anchor="start">28K</text>
    <line x1="92" y1="306.0" x2="768" y2="306.0" stroke="#d7ccb8" stroke-width="1"/>
    <text x="78" y="310.0" class="axis" text-anchor="end">0</text>
    <line x1="92" y1="257.0" x2="768" y2="257.0" stroke="#d7ccb8" stroke-width="1"/>
    <text x="78" y="261.0" class="axis" text-anchor="end">50K</text>
    <line x1="92" y1="208.0" x2="768" y2="208.0" stroke="#d7ccb8" stroke-width="1"/>
    <text x="78" y="212.0" class="axis" text-anchor="end">100K</text>
    <line x1="92" y1="159.0" x2="768" y2="159.0" stroke="#d7ccb8" stroke-width="1"/>
    <text x="78" y="163.0" class="axis" text-anchor="end">150K</text>
    <line x1="92" y1="110.0" x2="768" y2="110.0" stroke="#d7ccb8" stroke-width="1"/>
    <text x="78" y="114.0" class="axis" text-anchor="end">200K</text>
    <!-- Chart frame -->
    <line x1="92" y1="306" x2="768" y2="306" stroke="#27231c" stroke-width="2"/>
    <line x1="92" y1="110" x2="92" y2="306" stroke="#27231c" stroke-width="2"/>
    <!-- Right axis -->
    <line x1="768" y1="110" x2="768" y2="306" stroke="#8c5f32" stroke-width="1.5" stroke-dasharray="4,4"/>
    <!-- Total line (left scale) -->
    <polyline points="92.0,306.0 105.3,301.0 118.5,298.9 131.8,295.4 145.0,282.5 158.3,269.1 171.5,268.3 184.8,267.6 198.0,265.4 211.3,264.4 224.5,263.8 237.8,260.6 251.1,259.5 264.3,258.7 277.6,256.6 290.8,254.2 304.1,253.1 317.3,251.7 330.6,249.1 343.8,240.7 357.1,237.3 370.4,230.3 383.6,223.3 396.9,221.8 410.1,221.6 423.4,216.7 436.6,215.4 449.9,211.1 463.1,209.0 476.4,205.6 489.6,202.8 502.9,199.3 516.2,193.8 529.4,191.8 542.7,186.0 555.9,184.1 569.2,179.0 582.4,176.6 595.7,174.3 608.9,170.2 622.2,168.6 635.5,162.2 648.7,158.0 662.0,155.6 675.2,151.0 688.5,146.9 701.7,145.1 715.0,142.1 728.2,141.0 741.5,140.2 754.7,135.8 768.0,130.0" fill="none" stroke="#2b3a55" stroke-width="2.5" stroke-linecap="round" stroke-linejoin="round"/>
    <!-- Danmaku line (left scale) -->
    <polyline points="92.0,306.0 105.3,301.3 118.5,299.3 131.8,296.0 145.0,283.8 158.3,271.1 171.5,270.4 184.8,269.7 198.0,267.6 211.3,266.7 224.5,266.1 237.8,263.1 251.1,262.1 264.3,261.3 277.6,259.4 290.8,257.1 304.1,256.0 317.3,254.6 330.6,252.2 343.8,244.3 357.1,241.0 370.4,234.4 383.6,228.3 396.9,226.9 410.1,226.7 423.4,222.1 436.6,221.7 449.9,218.4 463.1,216.5 476.4,215.2 489.6,214.4 502.9,213.3 516.2,209.1 529.4,207.2 542.7,201.7 555.9,199.9 569.2,195.1 582.4,192.8 595.7,190.7 608.9,186.8 622.2,185.3 635.5,179.2 648.7,175.2 662.0,173.0 675.2,168.7 688.5,164.8 701.7,163.1 715.0,160.2 728.2,159.2 741.5,158.4 754.7,156.9 768.0,155.2" fill="none" stroke="#3f7558" stroke-width="2.5" stroke-linecap="round" stroke-linejoin="round"/>
    <!-- Comments line (right scale) -->
    <polyline points="92.0,306.0 105.3,304.0 118.5,303.2 131.8,301.8 145.0,296.8 158.3,291.5 171.5,291.2 184.8,290.9 198.0,290.0 211.3,289.6 224.5,289.4 237.8,288.1 251.1,287.7 264.3,287.4 277.6,286.6 290.8,285.6 304.1,285.2 317.3,284.6 330.6,283.6 343.8,280.3 357.1,279.0 370.4,276.2 383.6,270.1 396.9,269.6 410.1,269.5 423.4,267.5 436.6,261.3 449.9,253.2 463.1,252.5 476.4,237.9 489.6,223.6 502.9,205.6 516.2,196.8 529.4,196.1 542.7,193.8 555.9,193.0 569.2,191.0 582.4,190.1 595.7,189.2 608.9,187.6 622.2,186.9 635.5,184.4 648.7,182.8 662.0,181.8 675.2,180.0 688.5,178.4 701.7,177.7 715.0,176.5 728.2,176.0 741.5,175.7 754.7,155.6 768.0,126.0" fill="none" stroke="#8c5f32" stroke-width="2" stroke-linecap="round" stroke-linejoin="round" stroke-dasharray="8,3"/>
    <!-- Date ticks -->
    <text x="92" y="332" class="axis" text-anchor="start">06-17 03:59</text>
    <text x="768" y="332" class="axis" text-anchor="end">06-19 06:57</text>
    <!-- Left axis label -->
    <text x="40" y="208" class="axis" transform="rotate(-90 40 208)" text-anchor="middle">Total / Danmaku (K)</text>
    <!-- Right axis label -->
    <text x="804" y="208" class="axis-right" transform="rotate(-90 804 208)" text-anchor="middle">Comments (K)</text>
  </g>
  <!-- Legend -->
  <g>
    <rect x="72" y="360" width="16" height="16" rx="3" fill="#2b3a55"/><text x="96" y="373" class="legend-text">Total 179,588 (left)</text>
    <rect x="300" y="360" width="16" height="16" rx="3" fill="#3f7558"/><text x="324" y="373" class="legend-text">Danmaku 153,875 (left)</text>
    <rect x="540" y="360" width="16" height="16" rx="3" fill="#8c5f32"/><text x="564" y="373" class="legend-text">Comments 25,713 (right)</text>
    <text x="880" y="373" class="legend-text" text-anchor="end">Runs: 456</text>
  </g>
</svg>
