<svg xmlns="http://www.w3.org/2000/svg" width="920" height="430" viewBox="0 0 920 430" role="img" aria-labelledby="timeline-title timeline-desc">
  <title id="timeline-title">Comment and danmaku collection growth over time</title>
  <desc id="timeline-desc">Cumulative growth lines for total and danmaku (left scale) and comments (right scale) across recorded harvest runs.</desc>
  <style>
    .bg { fill: #f3ead8; }
    .panel { fill: #fffaf0; stroke: #27231c; stroke-width: 2; }
    .title { font: 700 28px Georgia, 'Times New Roman', serif; fill: #27231c; }
    .sub { font: 14px ui-monospace, SFMono-Regular, Consolas, monospace; fill: #6c6355; }
    .axis { font: 12px ui-monospace, SFMono-Regular, Consolas, monospace; fill: #6c6355; }
    .axis-right { font: 12px ui-monospace, SFMono-Regular, Consolas, monospace; fill: #8c5f32; }
    .label { font: 13px ui-monospace, SFMono-Regular, Consolas, monospace; fill: #5d5548; }
    .legend-text { font: 12px ui-monospace, SFMono-Regular, Consolas, monospace; fill: #5d5548; }
  </style>
  <rect class="bg" width="920" height="430" rx="24"/>
  <rect class="panel" x="18" y="18" width="884" height="394" rx="20"/>
  <text x="40" y="62" class="title">Corpus Growth Over Time</text>
  <text x="40" y="88" class="sub">auto-generated from corpus run history on 2026-06-30 | 229 points shown (of 456 total)</text>
  <g>
    <line x1="92" y1="306.0" x2="768" y2="306.0" stroke="#d7ccb8" stroke-width="1" stroke-dasharray="4,4"/>
    <text x="774" y="310.0" class="axis-right" text-anchor="start">0</text>
    <line x1="92" y1="208.0" x2="768" y2="208.0" stroke="#d7ccb8" stroke-width="1" stroke-dasharray="4,4"/>
    <text x="774" y="212.0" class="axis-right" text-anchor="start">14K</text>
    <line x1="92" y1="110.0" x2="768" y2="110.0" stroke="#d7ccb8" stroke-width="1" stroke-dasharray="4,4"/>
    <text x="774" y="114.0" class="axis-right" text-anchor="start">28K</text>
    <line x1="92" y1="306.0" x2="768" y2="306.0" stroke="#d7ccb8" stroke-width="1"/>
    <text x="78" y="310.0" class="axis" text-anchor="end">0</text>
    <line x1="92" y1="257.0" x2="768" y2="257.0" stroke="#d7ccb8" stroke-width="1"/>
    <text x="78" y="261.0" class="axis" text-anchor="end">50K</text>
    <line x1="92" y1="208.0" x2="768" y2="208.0" stroke="#d7ccb8" stroke-width="1"/>
    <text x="78" y="212.0" class="axis" text-anchor="end">100K</text>
    <line x1="92" y1="159.0" x2="768" y2="159.0" stroke="#d7ccb8" stroke-width="1"/>
    <text x="78" y="163.0" class="axis" text-anchor="end">150K</text>
    <line x1="92" y1="110.0" x2="768" y2="110.0" stroke="#d7ccb8" stroke-width="1"/>
    <text x="78" y="114.0" class="axis" text-anchor="end">200K</text>
    <!-- Chart frame -->
    <line x1="92" y1="306" x2="768" y2="306" stroke="#27231c" stroke-width="2"/>
    <line x1="92" y1="110" x2="92" y2="306" stroke="#27231c" stroke-width="2"/>
    <!-- Right axis -->
    <line x1="768" y1="110" x2="768" y2="306" stroke="#8c5f32" stroke-width="1.5" stroke-dasharray="4,4"/>
    <!-- Total line (left scale) -->
    <polyline points="92.0,306.0 95.0,305.6 97.9,305.4 100.9,301.2 103.9,301.1 106.8,301.0 109.8,301.0 112.8,300.8 115.7,299.7 118.7,298.9 121.6,298.0 124.6,297.1 127.6,297.0 130.5,296.7 133.5,295.1 136.5,290.0 139.4,289.8 142.4,287.1 145.4,282.5 148.3,280.7 151.3,276.8 154.3,271.1 157.2,271.0 160.2,269.0 163.2,269.0 166.1,269.0 169.1,268.5 172.1,268.3 175.0,268.3 178.0,268.0 180.9,267.9 183.9,267.9 186.9,267.3 189.8,267.1 192.8,266.2 195.8,265.5 198.7,265.4 201.7,265.4 204.7,264.8 207.6,264.7 210.6,264.4 213.6,264.4 216.5,264.0 219.5,264.0 222.5,264.0 225.4,263.8 228.4,262.5 231.4,261.3 234.3,261.2 237.3,261.1 240.2,260.5 243.2,260.4 246.2,259.7 249.1,259.6 252.1,259.5 255.1,259.5 258.0,259.0 261.0,258.9 264.0,258.7 266.9,257.9 269.9,257.4 272.9,256.9 275.8,256.9 278.8,256.6 281.8,256.0 284.7,255.9 287.7,254.4 290.6,254.3 293.6,253.8 296.6,253.3 299.5,253.2 302.5,253.1 305.5,253.1 308.4,253.0 311.4,253.0 314.4,252.1 317.3,251.9 320.3,251.6 323.3,251.4 326.2,249.8 329.2,249.7 332.2,249.1 335.1,246.6 338.1,242.6 341.1,240.9 344.0,240.8 347.0,240.7 349.9,237.7 352.9,237.7 355.9,237.3 358.8,237.3 361.8,236.2 364.8,235.2 367.7,230.5 370.7,230.4 373.7,228.3 376.6,227.6 379.6,227.1 382.6,224.0 385.5,223.3 388.5,223.2 391.5,223.2 394.4,223.1 397.4,221.9 400.4,221.8 403.3,221.8 406.3,221.7 409.2,221.7 412.2,221.6 415.2,217.0 418.1,216.8 421.1,216.8 424.1,216.7 427.0,216.6 430.0,216.6 433.0,216.4 435.9,215.5 438.9,215.4 441.9,214.6 444.8,213.5 447.8,212.9 450.8,211.2 453.7,211.0 456.7,210.5 459.6,210.1 462.6,209.5 465.6,209.0 468.5,208.2 471.5,207.6 474.5,207.1 477.4,206.1 480.4,205.6 483.4,204.9 486.3,204.3 489.3,203.5 492.3,202.8 495.2,202.2 498.2,201.3 501.2,200.2 504.1,199.7 507.1,198.8 510.1,198.2 513.0,196.7 516.0,195.1 518.9,193.8 521.9,193.4 524.9,192.8 527.8,192.0 530.8,192.0 533.8,190.6 536.7,188.6 539.7,188.4 542.7,187.7 545.6,186.0 548.6,185.1 551.6,184.6 554.5,184.3 557.5,184.1 560.5,183.6 563.4,183.0 566.4,180.6 569.4,179.8 572.3,179.0 575.3,178.4 578.2,177.6 581.2,177.4 584.2,176.8 587.1,176.1 590.1,175.6 593.1,175.0 596.0,174.5 599.0,174.3 602.0,173.6 604.9,173.0 607.9,171.6 610.9,170.5 613.8,170.2 616.8,169.6 619.8,169.3 622.7,168.9 625.7,168.6 628.6,167.5 631.6,167.4 634.6,165.7 637.5,164.8 640.5,160.4 643.5,159.7 646.4,159.0 649.4,158.6 652.4,158.0 655.3,157.5 658.3,157.0 661.3,156.3 664.2,155.7 667.2,155.0 670.2,153.3 673.1,152.5 676.1,151.6 679.1,151.0 682.0,150.0 685.0,149.0 687.9,148.4 690.9,147.1 693.9,146.4 696.8,146.2 699.8,145.7 702.8,145.3 705.7,145.1 708.7,144.8 711.7,144.4 714.6,144.2 717.6,142.1 720.6,142.0 723.5,141.7 726.5,141.4 729.5,141.0 732.4,141.0 735.4,140.7 738.4,140.7 741.3,140.3 744.3,140.2 747.2,140.2 750.2,140.1 753.2,138.9 756.1,137.1 759.1,135.8 762.1,131.5 765.0,130.4 768.0,130.0" fill="none" stroke="#2b3a55" stroke-width="2.5" stroke-linecap="round" stroke-linejoin="round"/>
    <!-- Danmaku line (left scale) -->
    <polyline points="92.0,306.0 95.0,305.7 97.9,305.4 100.9,301.4 103.9,301.4 106.8,301.3 109.8,301.3 112.8,301.1 115.7,300.0 118.7,299.3 121.6,298.5 124.6,297.6 127.6,297.5 130.5,297.2 133.5,295.7 136.5,290.9 139.4,290.7 142.4,288.1 145.4,283.8 148.3,282.1 151.3,278.5 154.3,273.0 157.2,272.9 160.2,271.1 163.2,271.1 166.1,271.1 169.1,270.6 172.1,270.4 175.0,270.3 178.0,270.1 180.9,270.0 183.9,270.0 186.9,269.5 189.8,269.2 192.8,268.4 195.8,267.7 198.7,267.6 201.7,267.6 204.7,267.0 207.6,267.0 210.6,266.7 213.6,266.7 216.5,266.3 219.5,266.3 222.5,266.3 225.4,266.1 228.4,264.9 231.4,263.7 234.3,263.6 237.3,263.6 240.2,263.0 243.2,262.9 246.2,262.2 249.1,262.1 252.1,262.1 255.1,262.0 258.0,261.6 261.0,261.5 264.0,261.4 266.9,260.5 269.9,260.1 272.9,259.6 275.8,259.6 278.8,259.4 281.8,258.7 284.7,258.7 287.7,257.2 290.6,257.1 293.6,256.7 296.6,256.2 299.5,256.1 302.5,256.0 305.5,256.0 308.4,255.9 311.4,255.9 314.4,255.1 317.3,254.9 320.3,254.6 323.3,254.4 326.2,252.9 329.2,252.8 332.2,252.2 335.1,249.8 338.1,246.1 341.1,244.5 344.0,244.4 347.0,244.3 349.9,241.5 352.9,241.4 355.9,241.1 358.8,241.0 361.8,240.0 364.8,239.1 367.7,234.6 370.7,234.5 373.7,232.6 376.6,231.9 379.6,231.5 382.6,228.5 385.5,228.3 388.5,228.2 391.5,228.2 394.4,228.2 397.4,227.0 400.4,226.9 403.3,226.9 406.3,226.8 409.2,226.8 412.2,226.7 415.2,222.3 418.1,222.2 421.1,222.1 424.1,222.1 427.0,222.0 430.0,222.0 433.0,221.8 435.9,221.8 438.9,221.7 441.9,220.9 444.8,219.9 447.8,219.3 450.8,218.5 453.7,218.4 456.7,217.9 459.6,217.6 462.6,217.0 465.6,216.5 468.5,215.7 471.5,215.7 474.5,215.6 477.4,215.2 480.4,215.1 483.4,214.9 486.3,214.9 489.3,214.5 492.3,214.4 495.2,214.2 498.2,213.8 501.2,213.3 504.1,213.3 507.1,212.9 510.1,212.8 513.0,211.8 516.0,210.3 518.9,209.1 521.9,208.8 524.9,208.2 527.8,207.4 530.8,207.4 533.8,206.0 536.7,204.1 539.7,204.0 542.7,203.3 545.6,201.7 548.6,200.8 551.6,200.4 554.5,200.1 557.5,199.9 560.5,199.5 563.4,198.9 566.4,196.6 569.4,195.8 572.3,195.1 575.3,194.5 578.2,193.8 581.2,193.6 584.2,193.0 587.1,192.4 590.1,191.9 593.1,191.3 596.0,190.9 599.0,190.7 602.0,189.9 604.9,189.4 607.9,188.1 610.9,187.1 613.8,186.8 616.8,186.2 619.8,185.9 622.7,185.5 625.7,185.3 628.6,184.2 631.6,184.1 634.6,182.6 637.5,181.7 640.5,177.6 643.5,176.8 646.4,176.2 649.4,175.8 652.4,175.2 655.3,174.7 658.3,174.3 661.3,173.6 664.2,173.1 667.2,172.4 670.2,170.8 673.1,170.1 676.1,169.2 679.1,168.7 682.0,167.7 685.0,166.7 687.9,166.2 690.9,164.9 693.9,164.3 696.8,164.1 699.8,163.7 702.8,163.2 705.7,163.1 708.7,162.7 711.7,162.4 714.6,162.2 717.6,160.2 720.6,160.1 723.5,159.8 726.5,159.5 729.5,159.2 732.4,159.2 735.4,158.9 738.4,158.9 741.3,158.6 744.3,158.5 747.2,158.4 750.2,158.3 753.2,157.2 756.1,157.2 759.1,156.9 762.1,156.6 765.0,155.6 768.0,155.2" fill="none" stroke="#3f7558" stroke-width="2.5" stroke-linecap="round" stroke-linejoin="round"/>
    <!-- Comments line (right scale) -->
    <polyline points="92.0,306.0 95.0,305.9 97.9,305.8 100.9,304.1 103.9,304.1 106.8,304.0 109.8,304.0 112.8,304.0 115.7,303.5 118.7,303.2 121.6,302.9 124.6,302.5 127.6,302.5 130.5,302.3 133.5,301.7 136.5,299.7 139.4,299.6 142.4,298.6 145.4,296.8 148.3,296.1 151.3,294.5 154.3,292.2 157.2,292.2 160.2,291.4 163.2,291.4 166.1,291.4 169.1,291.3 172.1,291.2 175.0,291.2 178.0,291.0 180.9,291.0 183.9,291.0 186.9,290.8 189.8,290.7 192.8,290.3 195.8,290.1 198.7,290.0 201.7,290.0 204.7,289.8 207.6,289.8 210.6,289.6 213.6,289.6 216.5,289.5 219.5,289.5 222.5,289.5 225.4,289.4 228.4,288.9 231.4,288.4 234.3,288.4 237.3,288.4 240.2,288.1 243.2,288.1 246.2,287.8 249.1,287.7 252.1,287.7 255.1,287.7 258.0,287.5 261.0,287.5 264.0,287.4 266.9,287.1 269.9,286.9 272.9,286.7 275.8,286.7 278.8,286.6 281.8,286.3 284.7,286.3 287.7,285.7 290.6,285.6 293.6,285.4 296.6,285.2 299.5,285.2 302.5,285.2 305.5,285.2 308.4,285.1 311.4,285.1 314.4,284.8 317.3,284.7 320.3,284.6 323.3,284.5 326.2,283.9 329.2,283.8 332.2,283.6 335.1,282.6 338.1,281.1 341.1,280.4 344.0,280.3 347.0,280.3 349.9,279.1 352.9,279.1 355.9,279.0 358.8,279.0 361.8,278.5 364.8,278.1 367.7,276.3 370.7,276.2 373.7,275.5 376.6,275.2 379.6,275.0 382.6,273.8 385.5,270.1 388.5,270.1 391.5,270.1 394.4,270.1 397.4,269.6 400.4,269.6 403.3,269.6 406.3,269.5 409.2,269.5 412.2,269.5 415.2,267.7 418.1,267.6 421.1,267.6 424.1,267.5 427.0,267.5 430.0,267.5 433.0,267.4 435.9,261.3 438.9,261.3 441.9,261.0 444.8,260.5 447.8,260.3 450.8,253.3 453.7,253.2 456.7,253.0 459.6,252.9 462.6,252.7 465.6,252.5 468.5,252.1 471.5,248.6 474.5,245.1 477.4,241.4 480.4,237.9 483.4,234.3 486.3,230.8 489.3,227.1 492.3,223.6 495.2,220.0 498.2,216.3 501.2,212.6 504.1,209.1 507.1,205.5 510.1,201.9 513.0,198.0 516.0,197.3 518.9,196.8 521.9,196.7 524.9,196.5 527.8,196.1 530.8,196.1 533.8,195.6 536.7,194.8 539.7,194.7 542.7,194.5 545.6,193.8 548.6,193.4 551.6,193.2 554.5,193.1 557.5,193.0 560.5,192.9 563.4,192.6 566.4,191.6 569.4,191.3 572.3,191.0 575.3,190.8 578.2,190.5 581.2,190.4 584.2,190.1 587.1,189.9 590.1,189.7 593.1,189.5 596.0,189.3 599.0,189.2 602.0,188.9 604.9,188.7 607.9,188.1 610.9,187.7 613.8,187.6 616.8,187.3 619.8,187.2 622.7,187.0 625.7,186.9 628.6,186.5 631.6,186.5 634.6,185.8 637.5,185.4 640.5,183.7 643.5,183.4 646.4,183.1 649.4,183.0 652.4,182.8 655.3,182.6 658.3,182.4 661.3,182.1 664.2,181.9 667.2,181.6 670.2,180.9 673.1,180.6 676.1,180.2 679.1,180.0 682.0,179.6 685.0,179.2 687.9,179.0 690.9,178.4 693.9,178.2 696.8,178.1 699.8,177.9 702.8,177.7 705.7,177.7 708.7,177.5 711.7,177.4 714.6,177.3 717.6,176.5 720.6,176.5 723.5,176.3 726.5,176.2 729.5,176.1 732.4,176.0 735.4,175.9 738.4,175.9 741.3,175.8 744.3,175.8 747.2,175.7 750.2,175.7 753.2,175.2 756.1,162.5 759.1,155.6 762.1,126.6 765.0,126.2 768.0,126.0" fill="none" stroke="#8c5f32" stroke-width="2" stroke-linecap="round" stroke-linejoin="round" stroke-dasharray="8,3"/>
    <!-- Date ticks -->
    <text x="92.0" y="332" class="axis" text-anchor="start">06-17 03:59</text>
    <text x="204.7" y="332" class="axis" text-anchor="middle">06-17 10:47</text>
    <text x="317.3" y="332" class="axis" text-anchor="middle">06-17 17:02</text>
    <text x="430.0" y="332" class="axis" text-anchor="middle">06-18 00:14</text>
    <text x="542.7" y="332" class="axis" text-anchor="middle">06-18 06:39</text>
    <text x="655.3" y="332" class="axis" text-anchor="middle">06-18 18:44</text>
    <text x="768.0" y="332" class="axis" text-anchor="end">06-19 06:57</text>
    <!-- Left axis label -->
    <text x="40" y="208" class="axis" transform="rotate(-90 40 208)" text-anchor="middle">Total / Danmaku (K)</text>
    <!-- Right axis label -->
    <text x="804" y="208" class="axis-right" transform="rotate(-90 804 208)" text-anchor="middle">Comments (K)</text>
  </g>
  <!-- Legend -->
  <g>
    <rect x="72" y="360" width="16" height="16" rx="3" fill="#2b3a55"/><text x="96" y="373" class="legend-text">Total 179,588 (left)</text>
    <rect x="300" y="360" width="16" height="16" rx="3" fill="#3f7558"/><text x="324" y="373" class="legend-text">Danmaku 153,875 (left)</text>
    <rect x="540" y="360" width="16" height="16" rx="3" fill="#8c5f32"/><text x="564" y="373" class="legend-text">Comments 25,713 (right)</text>
    <text x="880" y="373" class="legend-text" text-anchor="end">Runs: 456</text>
  </g>
</svg>
