<svg xmlns="http://www.w3.org/2000/svg" width="920" height="430" viewBox="0 0 920 430" role="img" aria-labelledby="timeline-title timeline-desc">
  <title id="timeline-title">Comment and danmaku collection growth over time</title>
  <desc id="timeline-desc">Cumulative growth lines for total corpus records, comments, and danmaku across recorded harvest runs.</desc>
  <style>
    .bg { fill: #f3ead8; }
    .panel { fill: #fffaf0; stroke: #27231c; stroke-width: 2; }
    .title { font: 700 28px Georgia, 'Times New Roman', serif; fill: #27231c; }
    .sub { font: 14px ui-monospace, SFMono-Regular, Consolas, monospace; fill: #6c6355; }
    .axis { font: 12px ui-monospace, SFMono-Regular, Consolas, monospace; fill: #6c6355; }
    .label { font: 13px ui-monospace, SFMono-Regular, Consolas, monospace; fill: #5d5548; }
  </style>
  <rect class="bg" width="920" height="430" rx="24"/>
  <rect class="panel" x="18" y="18" width="884" height="394" rx="20"/>
  <text x="40" y="62" class="title">Corpus Growth Over Time</text>
  <text x="40" y="88" class="sub">auto-generated from corpus run history on 2026-06-19</text>
  <g>
    
    <line x1="72" y1="322.0" x2="820" y2="322.0" stroke="#d7ccb8" stroke-width="1"/>
    <text x="58" y="326.0" class="axis" text-anchor="end">0</text>
    <line x1="72" y1="273.0" x2="820" y2="273.0" stroke="#d7ccb8" stroke-width="1"/>
    <text x="58" y="277.0" class="axis" text-anchor="end">50,000</text>
    <line x1="72" y1="224.0" x2="820" y2="224.0" stroke="#d7ccb8" stroke-width="1"/>
    <text x="58" y="228.0" class="axis" text-anchor="end">100,000</text>
    <line x1="72" y1="175.0" x2="820" y2="175.0" stroke="#d7ccb8" stroke-width="1"/>
    <text x="58" y="179.0" class="axis" text-anchor="end">150,000</text>
    <line x1="72" y1="126.0" x2="820" y2="126.0" stroke="#d7ccb8" stroke-width="1"/>
    <text x="58" y="130.0" class="axis" text-anchor="end">200,000</text>
    <line x1="72" y1="322" x2="820" y2="322" stroke="#27231c" stroke-width="2"/>
    <line x1="72" y1="126" x2="72" y2="322" stroke="#27231c" stroke-width="2"/>
    <polyline points="72.0,322.0 73.7,321.7 75.3,321.6 77.0,321.5 78.6,321.4 80.3,320.7 81.9,317.2 83.6,317.2 85.2,317.1 86.9,317.0 88.5,317.0 90.2,317.0 91.8,317.0 93.5,316.9 95.1,316.8 96.8,316.8 98.4,315.7 100.1,315.7 101.7,314.9 103.4,314.9 105.0,314.0 106.7,313.8 108.3,313.1 110.0,313.0 111.6,313.0 113.3,312.7 114.9,312.7 116.6,311.4 118.2,311.1 119.9,310.9 121.5,306.0 123.2,305.8 124.8,305.8 126.5,303.3 128.1,303.1 129.8,298.6 131.4,298.5 133.1,296.8 134.7,296.7 136.4,294.4 138.0,292.8 139.7,292.5 141.4,287.1 143.0,287.1 144.7,287.0 146.3,285.1 148.0,285.0 149.6,285.0 151.3,285.0 152.9,285.0 154.6,285.0 156.2,285.0 157.9,284.5 159.5,284.5 161.2,284.3 162.8,284.3 164.5,284.3 166.1,284.0 167.8,284.0 169.4,283.9 171.1,283.9 172.7,283.9 174.4,283.9 176.0,283.6 177.7,283.3 179.3,283.3 181.0,283.1 182.6,282.2 184.3,282.2 185.9,282.0 187.6,281.5 189.2,281.4 190.9,281.4 192.5,281.4 194.2,281.4 195.8,280.8 197.5,280.8 199.1,280.7 200.8,280.7 202.4,280.6 204.1,280.4 205.7,280.4 207.4,280.4 209.1,280.0 210.7,280.0 212.4,280.0 214.0,280.0 215.7,280.0 217.3,279.9 219.0,279.9 220.6,279.8 222.3,278.7 223.9,278.5 225.6,277.3 227.2,277.3 228.9,277.2 230.5,277.2 232.2,277.2 233.8,277.1 235.5,276.6 237.1,276.5 238.8,276.5 240.4,276.4 242.1,275.7 243.7,275.7 245.4,275.6 247.0,275.5 248.7,275.5 250.3,275.5 252.0,275.5 253.6,275.5 255.3,275.0 256.9,275.0 258.6,275.0 260.2,274.9 261.9,274.8 263.5,274.7 265.2,274.7 266.8,273.9 268.5,273.8 270.1,273.4 271.8,273.1 273.4,272.9 275.1,272.9 276.8,272.9 278.4,272.7 280.1,272.6 281.7,272.2 283.4,272.0 285.0,271.9 286.7,271.9 288.3,271.9 290.0,270.4 291.6,270.3 293.3,270.2 294.9,270.2 296.6,269.8 298.2,269.3 299.9,269.3 301.5,269.3 303.2,269.2 304.8,269.2 306.5,269.1 308.1,269.1 309.8,269.1 311.4,269.1 313.1,269.0 314.7,269.0 316.4,269.0 318.0,268.9 319.7,268.1 321.3,268.0 323.0,267.9 324.6,267.7 326.3,267.6 327.9,267.4 329.6,267.4 331.2,265.9 332.9,265.8 334.5,265.8 336.2,265.7 337.8,265.6 339.5,265.1 341.1,264.2 342.8,262.6 344.5,259.7 346.1,258.6 347.8,256.9 349.4,256.9 351.1,256.8 352.7,256.8 354.4,256.7 356.0,256.7 357.7,253.7 359.3,253.7 361.0,253.7 362.6,253.7 364.3,253.7 365.9,253.3 367.6,253.3 369.2,253.3 370.9,253.1 372.5,252.2 374.2,252.0 375.8,251.2 377.5,250.8 379.1,246.5 380.8,246.4 382.4,246.4 384.1,246.3 385.7,244.3 387.4,243.7 389.0,243.6 390.7,243.2 392.3,243.1 394.0,240.0 395.6,240.0 397.3,239.8 398.9,239.3 400.6,239.2 402.2,239.2 403.9,239.2 405.5,239.2 407.2,239.2 408.8,239.1 410.5,238.0 412.2,237.9 413.8,237.8 415.5,237.8 417.1,237.8 418.8,237.7 420.4,237.7 422.1,237.7 423.7,237.7 425.4,237.7 427.0,237.6 428.7,237.6 430.3,236.3 432.0,232.9 433.6,232.9 435.3,232.8 436.9,232.8 438.6,232.7 440.2,232.7 441.9,232.7 443.5,232.7 445.2,232.6 446.8,232.6 448.5,232.6 450.1,232.6 451.8,232.4 453.4,232.4 455.1,231.5 456.7,231.5 458.4,231.4 460.0,231.2 461.7,230.6 463.3,229.9 465.0,229.5 466.6,229.0 468.3,228.9 469.9,228.1 471.6,227.1 473.2,227.1 474.9,227.0 476.5,226.7 478.2,226.5 479.8,226.3 481.5,226.1 483.2,226.0 484.8,225.5 486.5,225.0 488.1,225.0 489.8,224.2 491.4,224.2 493.1,223.7 494.7,223.6 496.4,223.1 498.0,223.1 499.7,222.6 501.3,222.1 503.0,221.6 504.6,221.5 506.3,221.1 507.9,220.8 509.6,220.4 511.2,220.3 512.9,219.8 514.5,219.5 516.2,219.0 517.8,218.8 519.5,218.3 521.1,218.2 522.8,217.7 524.4,217.3 526.1,216.8 527.7,216.2 529.4,215.7 531.0,215.7 532.7,215.2 534.3,214.8 536.0,214.3 537.6,214.2 539.3,213.7 540.9,212.7 542.6,211.2 544.2,211.0 545.9,210.5 547.5,209.8 549.2,209.7 550.9,209.4 552.5,208.8 554.2,208.8 555.8,208.8 557.5,208.0 559.1,208.0 560.8,208.0 562.4,207.8 564.1,206.6 565.7,204.7 567.4,204.6 569.0,204.5 570.7,204.4 572.3,204.3 574.0,203.7 575.6,203.6 577.3,202.0 578.9,201.4 580.6,201.1 582.2,201.0 583.9,200.6 585.5,200.6 587.2,200.3 588.8,200.1 590.5,200.1 592.1,200.1 593.8,199.6 595.4,199.2 597.1,199.0 598.7,198.9 600.4,196.6 602.0,196.3 603.7,195.8 605.3,195.5 607.0,195.0 608.6,194.8 610.3,194.4 611.9,194.4 613.6,193.6 615.2,193.4 616.9,193.4 618.6,193.1 620.2,192.7 621.9,192.6 623.5,192.1 625.2,191.7 626.8,191.6 628.5,191.1 630.1,191.0 631.8,190.8 633.4,190.5 635.1,190.3 636.7,190.3 638.4,189.6 640.0,189.5 641.7,189.1 643.3,189.0 645.0,188.9 646.6,187.6 648.3,186.6 649.9,186.5 651.6,186.2 653.2,186.2 654.9,186.0 656.5,185.6 658.2,185.4 659.8,185.3 661.5,184.9 663.1,184.8 664.8,184.6 666.4,184.6 668.1,184.4 669.7,183.5 671.4,183.5 673.0,183.4 674.7,182.8 676.3,181.7 678.0,181.1 679.6,180.8 681.3,178.2 682.9,176.4 684.6,175.9 686.3,175.7 687.9,175.1 689.6,175.0 691.2,174.9 692.9,174.6 694.5,174.1 696.2,174.0 697.8,173.7 699.5,173.4 701.1,173.0 702.8,173.0 704.4,172.7 706.1,172.3 707.7,172.2 709.4,171.7 711.0,171.6 712.7,171.0 714.3,169.3 716.0,169.3 717.6,169.0 719.3,168.5 720.9,168.0 722.6,167.6 724.2,167.0 725.9,167.0 727.5,166.0 729.2,166.0 730.8,165.0 732.5,165.0 734.1,164.5 735.8,164.4 737.4,163.8 739.1,163.0 740.7,162.9 742.4,162.4 744.0,162.2 745.7,162.2 747.3,161.8 749.0,161.7 750.6,161.7 752.3,161.3 754.0,161.2 755.6,161.1 757.3,160.8 758.9,160.7 760.6,160.7 762.2,160.3 763.9,160.3 765.5,160.2 767.2,159.9 768.8,158.1 770.5,158.0 772.1,158.0 773.8,157.8 775.4,157.7 777.1,157.6 778.7,157.3 780.4,157.1 782.0,157.0 783.7,157.0 785.3,156.9 787.0,156.8 788.6,156.7 790.3,156.7 791.9,156.6 793.6,156.3 795.2,156.3 796.9,156.3 798.5,156.2 800.2,156.2 801.8,156.2 803.5,156.2 805.1,156.1 806.8,155.5 808.4,154.9 810.1,154.0 811.7,153.1 813.4,152.1 815.0,151.8 816.7,147.7 818.3,147.5 820.0,146.4" fill="none" stroke="#27231c" stroke-width="4" stroke-linecap="round" stroke-linejoin="round"/>
    <polyline points="72.0,322.0 73.7,322.0 75.3,322.0 77.0,322.0 78.6,322.0 80.3,321.9 81.9,321.7 83.6,321.7 85.2,321.7 86.9,321.7 88.5,321.7 90.2,321.7 91.8,321.7 93.5,321.7 95.1,321.7 96.8,321.7 98.4,321.7 100.1,321.7 101.7,321.6 103.4,321.6 105.0,321.6 106.7,321.6 108.3,321.5 110.0,321.5 111.6,321.5 113.3,321.5 114.9,321.5 116.6,321.4 118.2,321.4 119.9,321.4 121.5,321.1 123.2,321.1 124.8,321.1 126.5,321.0 128.1,321.0 129.8,320.7 131.4,320.7 133.1,320.6 134.7,320.6 136.4,320.5 138.0,320.4 139.7,320.4 141.4,320.1 143.0,320.1 144.7,320.1 146.3,320.0 148.0,320.0 149.6,320.0 151.3,320.0 152.9,320.0 154.6,320.0 156.2,320.0 157.9,319.9 159.5,319.9 161.2,319.9 162.8,319.9 164.5,319.9 166.1,319.9 167.8,319.9 169.4,319.9 171.1,319.9 172.7,319.9 174.4,319.9 176.0,319.9 177.7,319.9 179.3,319.9 181.0,319.9 182.6,319.8 184.3,319.8 185.9,319.8 187.6,319.8 189.2,319.8 190.9,319.8 192.5,319.8 194.2,319.8 195.8,319.7 197.5,319.7 199.1,319.7 200.8,319.7 202.4,319.7 204.1,319.7 205.7,319.7 207.4,319.7 209.1,319.7 210.7,319.7 212.4,319.7 214.0,319.7 215.7,319.7 217.3,319.7 219.0,319.7 220.6,319.7 222.3,319.6 223.9,319.6 225.6,319.5 227.2,319.5 228.9,319.5 230.5,319.5 232.2,319.5 233.8,319.5 235.5,319.5 237.1,319.5 238.8,319.5 240.4,319.5 242.1,319.4 243.7,319.4 245.4,319.4 247.0,319.4 248.7,319.4 250.3,319.4 252.0,319.4 253.6,319.4 255.3,319.4 256.9,319.4 258.6,319.4 260.2,319.4 261.9,319.4 263.5,319.4 265.2,319.4 266.8,319.3 268.5,319.3 270.1,319.3 271.8,319.3 273.4,319.3 275.1,319.3 276.8,319.3 278.4,319.3 280.1,319.3 281.7,319.3 283.4,319.2 285.0,319.2 286.7,319.2 288.3,319.2 290.0,319.2 291.6,319.2 293.3,319.1 294.9,319.1 296.6,319.1 298.2,319.1 299.9,319.1 301.5,319.1 303.2,319.1 304.8,319.1 306.5,319.1 308.1,319.1 309.8,319.1 311.4,319.1 313.1,319.1 314.7,319.1 316.4,319.1 318.0,319.1 319.7,319.0 321.3,319.0 323.0,319.0 324.6,319.0 326.3,319.0 327.9,319.0 329.6,319.0 331.2,318.9 332.9,318.9 334.5,318.9 336.2,318.9 337.8,318.9 339.5,318.9 341.1,318.8 342.8,318.7 344.5,318.6 346.1,318.5 347.8,318.4 349.4,318.4 351.1,318.4 352.7,318.4 354.4,318.4 356.0,318.4 357.7,318.2 359.3,318.2 361.0,318.2 362.6,318.2 364.3,318.2 365.9,318.2 367.6,318.2 369.2,318.2 370.9,318.2 372.5,318.2 374.2,318.1 375.8,318.1 377.5,318.1 379.1,317.8 380.8,317.8 382.4,317.8 384.1,317.8 385.7,317.7 387.4,317.7 389.0,317.7 390.7,317.7 392.3,317.7 394.0,317.5 395.6,317.5 397.3,317.5 398.9,317.0 400.6,317.0 402.2,317.0 403.9,317.0 405.5,317.0 407.2,317.0 408.8,317.0 410.5,316.9 412.2,316.9 413.8,316.9 415.5,316.9 417.1,316.9 418.8,316.9 420.4,316.9 422.1,316.9 423.7,316.9 425.4,316.9 427.0,316.9 428.7,316.9 430.3,316.8 432.0,316.6 433.6,316.6 435.3,316.6 436.9,316.6 438.6,316.6 440.2,316.6 441.9,316.6 443.5,316.6 445.2,316.6 446.8,316.6 448.5,316.6 450.1,316.6 451.8,316.6 453.4,316.6 455.1,315.7 456.7,315.7 458.4,315.7 460.0,315.7 461.7,315.7 463.3,315.7 465.0,315.6 466.6,315.6 468.3,315.6 469.9,315.6 471.6,314.6 473.2,314.6 474.9,314.6 476.5,314.6 478.2,314.6 479.8,314.6 481.5,314.6 483.2,314.6 484.8,314.5 486.5,314.5 488.1,314.5 489.8,314.5 491.4,314.5 493.1,314.0 494.7,314.0 496.4,313.5 498.0,313.5 499.7,313.0 501.3,313.0 503.0,312.5 504.6,312.5 506.3,312.0 507.9,312.0 509.6,311.5 511.2,311.5 512.9,311.0 514.5,311.0 516.2,310.5 517.8,310.5 519.5,310.0 521.1,310.0 522.8,309.5 524.4,309.4 526.1,309.0 527.7,308.9 529.4,308.4 531.0,308.4 532.7,307.9 534.3,307.9 536.0,307.4 537.6,307.4 539.3,306.9 540.9,306.9 542.6,306.8 544.2,306.8 545.9,306.8 547.5,306.7 549.2,306.7 550.9,306.7 552.5,306.7 554.2,306.7 555.8,306.7 557.5,306.6 559.1,306.6 560.8,306.6 562.4,306.6 564.1,306.5 565.7,306.4 567.4,306.4 569.0,306.4 570.7,306.4 572.3,306.4 574.0,306.4 575.6,306.4 577.3,306.3 578.9,306.3 580.6,306.2 582.2,306.2 583.9,306.2 585.5,306.2 587.2,306.2 588.8,306.2 590.5,306.2 592.1,306.2 593.8,306.2 595.4,306.1 597.1,306.1 598.7,306.1 600.4,306.0 602.0,306.0 603.7,305.9 605.3,305.9 607.0,305.9 608.6,305.9 610.3,305.9 611.9,305.9 613.6,305.8 615.2,305.8 616.9,305.8 618.6,305.8 620.2,305.8 621.9,305.8 623.5,305.7 625.2,305.7 626.8,305.7 628.5,305.7 630.1,305.7 631.8,305.7 633.4,305.6 635.1,305.6 636.7,305.6 638.4,305.6 640.0,305.6 641.7,305.6 643.3,305.6 645.0,305.6 646.6,305.5 648.3,305.4 649.9,305.4 651.6,305.4 653.2,305.4 654.9,305.4 656.5,305.4 658.2,305.4 659.8,305.4 661.5,305.3 663.1,305.3 664.8,305.3 666.4,305.3 668.1,305.3 669.7,305.3 671.4,305.3 673.0,305.3 674.7,305.2 676.3,305.2 678.0,305.1 679.6,305.1 681.3,305.0 682.9,304.9 684.6,304.8 686.3,304.8 687.9,304.8 689.6,304.8 691.2,304.8 692.9,304.8 694.5,304.7 696.2,304.7 697.8,304.7 699.5,304.7 701.1,304.7 702.8,304.7 704.4,304.7 706.1,304.6 707.7,304.6 709.4,304.6 711.0,304.6 712.7,304.6 714.3,304.5 716.0,304.5 717.6,304.5 719.3,304.4 720.9,304.4 722.6,304.4 724.2,304.4 725.9,304.4 727.5,304.3 729.2,304.3 730.8,304.2 732.5,304.2 734.1,304.2 735.8,304.2 737.4,304.2 739.1,304.1 740.7,304.1 742.4,304.1 744.0,304.1 745.7,304.1 747.3,304.1 749.0,304.1 750.6,304.1 752.3,304.0 754.0,304.0 755.6,304.0 757.3,304.0 758.9,304.0 760.6,304.0 762.2,304.0 763.9,304.0 765.5,304.0 767.2,304.0 768.8,303.9 770.5,303.9 772.1,303.9 773.8,303.8 775.4,303.8 777.1,303.8 778.7,303.8 780.4,303.8 782.0,303.8 783.7,303.8 785.3,303.8 787.0,303.8 788.6,303.8 790.3,303.8 791.9,303.8 793.6,303.8 795.2,303.8 796.9,303.8 798.5,303.8 800.2,303.8 801.8,303.8 803.5,303.8 805.1,303.8 806.8,303.7 808.4,303.7 810.1,302.8 811.7,301.9 813.4,300.9 815.0,300.9 816.7,296.9 818.3,296.9 820.0,296.8" fill="none" stroke="#8c5f32" stroke-width="4" stroke-linecap="round" stroke-linejoin="round"/>
    <polyline points="72.0,322.0 73.7,321.7 75.3,321.7 77.0,321.5 78.6,321.4 80.3,320.8 81.9,317.4 83.6,317.4 85.2,317.4 86.9,317.3 88.5,317.3 90.2,317.3 91.8,317.3 93.5,317.2 95.1,317.1 96.8,317.1 98.4,316.0 100.1,316.0 101.7,315.3 103.4,315.3 105.0,314.5 106.7,314.3 108.3,313.6 110.0,313.5 111.6,313.5 113.3,313.2 114.9,313.2 116.6,312.0 118.2,311.7 119.9,311.5 121.5,306.9 123.2,306.7 124.8,306.7 126.5,304.3 128.1,304.1 129.8,299.9 131.4,299.8 133.1,298.2 134.7,298.1 136.4,295.9 138.0,294.5 139.7,294.1 141.4,289.0 143.0,289.0 144.7,288.9 146.3,287.1 148.0,287.1 149.6,287.1 151.3,287.1 152.9,287.1 154.6,287.1 156.2,287.1 157.9,286.6 159.5,286.6 161.2,286.4 162.8,286.3 164.5,286.3 166.1,286.1 167.8,286.1 169.4,286.0 171.1,286.0 172.7,286.0 174.4,286.0 176.0,285.7 177.7,285.5 179.3,285.4 181.0,285.2 182.6,284.4 184.3,284.4 185.9,284.2 187.6,283.7 189.2,283.7 190.9,283.6 192.5,283.6 194.2,283.6 195.8,283.0 197.5,283.0 199.1,283.0 200.8,283.0 202.4,282.8 204.1,282.7 205.7,282.7 207.4,282.7 209.1,282.3 210.7,282.3 212.4,282.3 214.0,282.3 215.7,282.3 217.3,282.3 219.0,282.2 220.6,282.1 222.3,281.1 223.9,280.9 225.6,279.8 227.2,279.7 228.9,279.7 230.5,279.6 232.2,279.6 233.8,279.6 235.5,279.1 237.1,279.0 238.8,279.0 240.4,278.9 242.1,278.2 243.7,278.2 245.4,278.1 247.0,278.1 248.7,278.1 250.3,278.1 252.0,278.0 253.6,278.0 255.3,277.6 256.9,277.6 258.6,277.5 260.2,277.5 261.9,277.4 263.5,277.3 265.2,277.3 266.8,276.5 268.5,276.5 270.1,276.1 271.8,275.8 273.4,275.6 275.1,275.6 276.8,275.6 278.4,275.4 280.1,275.4 281.7,275.0 283.4,274.7 285.0,274.7 286.7,274.7 288.3,274.6 290.0,273.2 291.6,273.2 293.3,273.1 294.9,273.1 296.6,272.7 298.2,272.2 299.9,272.2 301.5,272.2 303.2,272.1 304.8,272.1 306.5,272.0 308.1,272.0 309.8,272.0 311.4,272.0 313.1,271.9 314.7,271.9 316.4,271.9 318.0,271.8 319.7,271.1 321.3,270.9 323.0,270.9 324.6,270.6 326.3,270.6 327.9,270.4 329.6,270.4 331.2,269.0 332.9,268.9 334.5,268.9 336.2,268.8 337.8,268.7 339.5,268.2 341.1,267.4 342.8,265.8 344.5,263.2 346.1,262.1 347.8,260.5 349.4,260.5 351.1,260.4 352.7,260.4 354.4,260.3 356.0,260.3 357.7,257.5 359.3,257.5 361.0,257.4 362.6,257.4 364.3,257.4 365.9,257.1 367.6,257.0 369.2,257.0 370.9,256.9 372.5,256.0 374.2,255.9 375.8,255.1 377.5,254.7 379.1,250.6 380.8,250.6 382.4,250.5 384.1,250.4 385.7,248.6 387.4,248.0 389.0,247.9 390.7,247.6 392.3,247.5 394.0,244.5 395.6,244.5 397.3,244.3 398.9,244.3 400.6,244.3 402.2,244.2 403.9,244.2 405.5,244.2 407.2,244.2 408.8,244.2 410.5,243.1 412.2,243.0 413.8,242.9 415.5,242.9 417.1,242.9 418.8,242.9 420.4,242.8 422.1,242.8 423.7,242.8 425.4,242.8 427.0,242.8 428.7,242.7 430.3,241.5 432.0,238.3 433.6,238.2 435.3,238.2 436.9,238.2 438.6,238.1 440.2,238.1 441.9,238.1 443.5,238.1 445.2,238.0 446.8,238.0 448.5,238.0 450.1,238.0 451.8,237.8 453.4,237.8 455.1,237.8 456.7,237.7 458.4,237.7 460.0,237.5 461.7,236.9 463.3,236.2 465.0,235.9 466.6,235.4 468.3,235.3 469.9,234.5 471.6,234.5 473.2,234.4 474.9,234.4 476.5,234.1 478.2,233.9 479.8,233.8 481.5,233.6 483.2,233.5 484.8,233.0 486.5,232.5 488.1,232.5 489.8,231.7 491.4,231.7 493.1,231.7 494.7,231.7 496.4,231.7 498.0,231.6 499.7,231.6 501.3,231.2 503.0,231.2 504.6,231.1 506.3,231.1 507.9,230.9 509.6,230.9 511.2,230.9 512.9,230.9 514.5,230.5 516.2,230.5 517.8,230.4 519.5,230.4 521.1,230.2 522.8,230.2 524.4,229.8 526.1,229.8 527.7,229.3 529.4,229.3 531.0,229.3 532.7,229.3 534.3,228.9 536.0,228.9 537.6,228.8 539.3,228.8 540.9,227.8 542.6,226.4 544.2,226.3 545.9,225.8 547.5,225.1 549.2,225.0 550.9,224.7 552.5,224.2 554.2,224.2 555.8,224.1 557.5,223.4 559.1,223.4 560.8,223.4 562.4,223.2 564.1,222.0 565.7,220.3 567.4,220.1 569.0,220.1 570.7,219.9 572.3,219.9 574.0,219.3 575.6,219.2 577.3,217.7 578.9,217.1 580.6,216.8 582.2,216.7 583.9,216.4 585.5,216.4 587.2,216.1 588.8,216.0 590.5,215.9 592.1,215.9 593.8,215.5 595.4,215.1 597.1,214.8 598.7,214.8 600.4,212.6 602.0,212.3 603.7,211.8 605.3,211.6 607.0,211.1 608.6,210.9 610.3,210.5 611.9,210.5 613.6,209.8 615.2,209.6 616.9,209.5 618.6,209.3 620.2,209.0 621.9,208.8 623.5,208.4 625.2,208.0 626.8,207.9 628.5,207.4 630.1,207.3 631.8,207.1 633.4,206.8 635.1,206.7 636.7,206.7 638.4,206.0 640.0,205.9 641.7,205.5 643.3,205.4 645.0,205.4 646.6,204.1 648.3,203.1 649.9,203.1 651.6,202.8 653.2,202.8 654.9,202.6 656.5,202.2 658.2,202.0 659.8,201.9 661.5,201.5 663.1,201.5 664.8,201.3 666.4,201.3 668.1,201.1 669.7,200.2 671.4,200.2 673.0,200.1 674.7,199.6 676.3,198.5 678.0,197.9 679.6,197.7 681.3,195.2 682.9,193.5 684.6,193.0 686.3,192.8 687.9,192.3 689.6,192.2 691.2,192.1 692.9,191.8 694.5,191.4 696.2,191.2 697.8,191.0 699.5,190.7 701.1,190.3 702.8,190.3 704.4,190.1 706.1,189.6 707.7,189.5 709.4,189.1 711.0,189.0 712.7,188.4 714.3,186.8 716.0,186.8 717.6,186.5 719.3,186.1 720.9,185.6 722.6,185.2 724.2,184.7 725.9,184.6 727.5,183.7 729.2,183.7 730.8,182.7 732.5,182.7 734.1,182.3 735.8,182.2 737.4,181.7 739.1,180.9 740.7,180.8 742.4,180.3 744.0,180.1 745.7,180.1 747.3,179.7 749.0,179.7 750.6,179.6 752.3,179.2 754.0,179.1 755.6,179.1 757.3,178.8 758.9,178.7 760.6,178.7 762.2,178.4 763.9,178.3 765.5,178.2 767.2,178.0 768.8,176.2 770.5,176.2 772.1,176.1 773.8,176.0 775.4,175.8 777.1,175.8 778.7,175.5 780.4,175.3 782.0,175.2 783.7,175.2 785.3,175.1 787.0,175.0 788.6,174.9 790.3,174.9 791.9,174.9 793.6,174.6 795.2,174.6 796.9,174.5 798.5,174.5 800.2,174.4 801.8,174.4 803.5,174.4 805.1,174.3 806.8,173.8 808.4,173.2 810.1,173.2 811.7,173.2 813.4,173.2 815.0,172.9 816.7,172.9 818.3,172.6 820.0,171.6" fill="none" stroke="#3f7558" stroke-width="4" stroke-linecap="round" stroke-linejoin="round"/>
    <text x="72" y="348" class="axis">06-17 03:59</text>
    <text x="820" y="348" class="axis" text-anchor="end">06-19 06:38</text>
  </g>
  <g>
    <rect x="72" y="360" width="16" height="16" rx="3" fill="#27231c"/><text x="96" y="373" class="label">Total 179,185</text>
    <rect x="254" y="360" width="16" height="16" rx="3" fill="#8c5f32"/><text x="278" y="373" class="label">Comments 25,703</text>
    <rect x="476" y="360" width="16" height="16" rx="3" fill="#3f7558"/><text x="500" y="373" class="label">Danmaku 153,482</text>
    <text x="720" y="373" class="label">Runs: 454</text>
  </g>
</svg>
