<svg xmlns="http://www.w3.org/2000/svg" width="920" height="430" viewBox="0 0 920 430" role="img" aria-labelledby="timeline-title timeline-desc">
  <title id="timeline-title">Comment and danmaku collection growth over time</title>
  <desc id="timeline-desc">Cumulative growth lines for total corpus records, comments, and danmaku across recorded harvest runs.</desc>
  <style>
    .bg { fill: #f3ead8; }
    .panel { fill: #fffaf0; stroke: #27231c; stroke-width: 2; }
    .title { font: 700 28px Georgia, 'Times New Roman', serif; fill: #27231c; }
    .sub { font: 14px ui-monospace, SFMono-Regular, Consolas, monospace; fill: #6c6355; }
    .axis { font: 12px ui-monospace, SFMono-Regular, Consolas, monospace; fill: #6c6355; }
    .label { font: 13px ui-monospace, SFMono-Regular, Consolas, monospace; fill: #5d5548; }
  </style>
  <rect class="bg" width="920" height="430" rx="24"/>
  <rect class="panel" x="18" y="18" width="884" height="394" rx="20"/>
  <text x="40" y="62" class="title">Corpus Growth Over Time</text>
  <text x="40" y="88" class="sub">auto-generated from corpus run history on 2026-06-19</text>
  <g>
    
    <line x1="72" y1="322.0" x2="820" y2="322.0" stroke="#d7ccb8" stroke-width="1"/>
    <text x="58" y="326.0" class="axis" text-anchor="end">0</text>
    <line x1="72" y1="273.0" x2="820" y2="273.0" stroke="#d7ccb8" stroke-width="1"/>
    <text x="58" y="277.0" class="axis" text-anchor="end">44,796</text>
    <line x1="72" y1="224.0" x2="820" y2="224.0" stroke="#d7ccb8" stroke-width="1"/>
    <text x="58" y="228.0" class="axis" text-anchor="end">89,593</text>
    <line x1="72" y1="175.0" x2="820" y2="175.0" stroke="#d7ccb8" stroke-width="1"/>
    <text x="58" y="179.0" class="axis" text-anchor="end">134,389</text>
    <line x1="72" y1="126.0" x2="820" y2="126.0" stroke="#d7ccb8" stroke-width="1"/>
    <text x="58" y="130.0" class="axis" text-anchor="end">179,185</text>
    <line x1="72" y1="322" x2="820" y2="322" stroke="#27231c" stroke-width="2"/>
    <line x1="72" y1="126" x2="72" y2="322" stroke="#27231c" stroke-width="2"/>
    <polyline points="72.0,322.0 73.7,321.6 75.3,321.6 77.0,321.4 78.6,321.3 80.3,320.6 81.9,316.6 83.6,316.6 85.2,316.5 86.9,316.5 88.5,316.5 90.2,316.5 91.8,316.4 93.5,316.4 95.1,316.2 96.8,316.2 98.4,314.9 100.1,314.9 101.7,314.1 103.4,314.1 105.0,313.1 106.7,312.9 108.3,312.0 110.0,312.0 111.6,311.9 113.3,311.6 114.9,311.6 116.6,310.2 118.2,309.8 119.9,309.6 121.5,304.1 123.2,303.9 124.8,303.9 126.5,301.1 128.1,300.9 129.8,295.9 131.4,295.8 133.1,293.9 134.7,293.8 136.4,291.2 138.0,289.5 139.7,289.1 141.4,283.0 143.0,283.0 144.7,282.9 146.3,280.8 148.0,280.7 149.6,280.7 151.3,280.7 152.9,280.7 154.6,280.7 156.2,280.7 157.9,280.2 159.5,280.2 161.2,279.9 162.8,279.9 164.5,279.9 166.1,279.6 167.8,279.6 169.4,279.5 171.1,279.5 172.7,279.5 174.4,279.4 176.0,279.2 177.7,278.8 179.3,278.8 181.0,278.5 182.6,277.6 184.3,277.6 185.9,277.4 187.6,276.8 189.2,276.7 190.9,276.7 192.5,276.7 194.2,276.6 195.8,276.0 197.5,276.0 199.1,275.9 200.8,275.9 202.4,275.8 204.1,275.6 205.7,275.6 207.4,275.5 209.1,275.1 210.7,275.1 212.4,275.1 214.0,275.1 215.7,275.1 217.3,275.1 219.0,275.0 220.6,274.9 222.3,273.7 223.9,273.5 225.6,272.1 227.2,272.1 228.9,272.0 230.5,272.0 232.2,271.9 233.8,271.9 235.5,271.3 237.1,271.2 238.8,271.2 240.4,271.1 242.1,270.3 243.7,270.3 245.4,270.2 247.0,270.2 248.7,270.1 250.3,270.1 252.0,270.1 253.6,270.0 255.3,269.5 256.9,269.5 258.6,269.5 260.2,269.5 261.9,269.4 263.5,269.3 265.2,269.2 266.8,268.3 268.5,268.2 270.1,267.7 271.8,267.4 273.4,267.2 275.1,267.2 276.8,267.1 278.4,266.9 280.1,266.9 281.7,266.4 283.4,266.1 285.0,266.1 286.7,266.1 288.3,266.1 290.0,264.4 291.6,264.3 293.3,264.2 294.9,264.2 296.6,263.7 298.2,263.2 299.9,263.2 301.5,263.1 303.2,263.1 304.8,263.1 306.5,262.9 308.1,262.9 309.8,262.9 311.4,262.9 313.1,262.9 314.7,262.8 316.4,262.8 318.0,262.8 319.7,261.8 321.3,261.7 323.0,261.6 324.6,261.3 326.3,261.3 327.9,261.1 329.6,261.1 331.2,259.4 332.9,259.3 334.5,259.3 336.2,259.1 337.8,259.1 339.5,258.5 341.1,257.4 342.8,255.7 344.5,252.5 346.1,251.3 347.8,249.4 349.4,249.4 351.1,249.3 352.7,249.2 354.4,249.2 356.0,249.1 357.7,245.8 359.3,245.8 361.0,245.7 362.6,245.7 364.3,245.7 365.9,245.3 367.6,245.3 369.2,245.3 370.9,245.1 372.5,244.1 374.2,243.9 375.8,242.9 377.5,242.5 379.1,237.7 380.8,237.6 382.4,237.6 384.1,237.5 385.7,235.3 387.4,234.6 389.0,234.5 390.7,234.1 392.3,234.0 394.0,230.5 395.6,230.5 397.3,230.2 398.9,229.7 400.6,229.6 402.2,229.6 403.9,229.6 405.5,229.6 407.2,229.5 408.8,229.5 410.5,228.2 412.2,228.1 413.8,228.0 415.5,228.0 417.1,228.0 418.8,228.0 420.4,228.0 422.1,227.9 423.7,227.9 425.4,227.9 427.0,227.9 428.7,227.8 430.3,226.4 432.0,222.6 433.6,222.5 435.3,222.5 436.9,222.4 438.6,222.4 440.2,222.3 441.9,222.3 443.5,222.3 445.2,222.3 446.8,222.2 448.5,222.2 450.1,222.2 451.8,222.0 453.4,222.0 455.1,221.0 456.7,220.9 458.4,220.9 460.0,220.6 461.7,220.0 463.3,219.2 465.0,218.8 466.6,218.2 468.3,218.1 469.9,217.2 471.6,216.1 473.2,216.0 474.9,215.9 476.5,215.7 478.2,215.4 479.8,215.2 481.5,215.0 483.2,214.9 484.8,214.3 486.5,213.7 488.1,213.7 489.8,212.8 491.4,212.8 493.1,212.3 494.7,212.2 496.4,211.7 498.0,211.6 499.7,211.0 501.3,210.5 503.0,210.0 504.6,209.9 506.3,209.3 507.9,209.1 509.6,208.5 511.2,208.5 512.9,208.0 514.5,207.5 516.2,207.0 517.8,206.8 519.5,206.3 521.1,206.1 522.8,205.6 524.4,205.1 526.1,204.6 527.7,203.9 529.4,203.4 531.0,203.4 532.7,202.8 534.3,202.4 536.0,201.8 537.6,201.7 539.3,201.2 540.9,200.0 542.6,198.3 544.2,198.2 545.9,197.5 547.5,196.8 549.2,196.6 550.9,196.4 552.5,195.7 554.2,195.7 555.8,195.6 557.5,194.8 559.1,194.8 560.8,194.7 562.4,194.5 564.1,193.2 565.7,191.1 567.4,190.9 569.0,190.9 570.7,190.7 572.3,190.6 574.0,190.0 575.6,189.9 577.3,188.0 578.9,187.4 580.6,187.0 582.2,186.9 583.9,186.5 585.5,186.5 587.2,186.2 588.8,186.0 590.5,186.0 592.1,185.9 593.8,185.4 595.4,185.0 597.1,184.7 598.7,184.7 600.4,182.0 602.0,181.7 603.7,181.1 605.3,180.9 607.0,180.2 608.6,180.0 610.3,179.6 611.9,179.5 613.6,178.7 615.2,178.4 616.9,178.4 618.6,178.1 620.2,177.7 621.9,177.5 623.5,177.0 625.2,176.6 626.8,176.4 628.5,175.9 630.1,175.8 631.8,175.6 633.4,175.2 635.1,175.1 636.7,175.0 638.4,174.2 640.0,174.1 641.7,173.7 643.3,173.5 645.0,173.5 646.6,172.0 648.3,170.8 649.9,170.8 651.6,170.4 653.2,170.4 654.9,170.2 656.5,169.8 658.2,169.5 659.8,169.4 661.5,168.9 663.1,168.9 664.8,168.7 666.4,168.6 668.1,168.4 669.7,167.4 671.4,167.4 673.0,167.3 674.7,166.6 676.3,165.4 678.0,164.7 679.6,164.4 681.3,161.5 682.9,159.5 684.6,158.9 686.3,158.7 687.9,158.0 689.6,157.9 691.2,157.8 692.9,157.5 694.5,156.9 696.2,156.8 697.8,156.5 699.5,156.2 701.1,155.7 702.8,155.7 704.4,155.4 706.1,154.9 707.7,154.8 709.4,154.2 711.0,154.1 712.7,153.4 714.3,151.5 716.0,151.5 717.6,151.2 719.3,150.7 720.9,150.1 722.6,149.6 724.2,149.0 725.9,149.0 727.5,147.9 729.2,147.9 730.8,146.7 732.5,146.7 734.1,146.2 735.8,146.1 737.4,145.5 739.1,144.6 740.7,144.4 742.4,143.8 744.0,143.6 745.7,143.6 747.3,143.2 749.0,143.1 750.6,143.1 752.3,142.6 754.0,142.5 755.6,142.4 757.3,142.1 758.9,142.0 760.6,142.0 762.2,141.6 763.9,141.5 765.5,141.4 767.2,141.1 768.8,139.0 770.5,139.0 772.1,138.9 773.8,138.8 775.4,138.6 777.1,138.5 778.7,138.2 780.4,137.9 782.0,137.8 783.7,137.8 785.3,137.8 787.0,137.6 788.6,137.5 790.3,137.5 791.9,137.4 793.6,137.1 795.2,137.1 796.9,137.0 798.5,137.0 800.2,136.9 801.8,136.9 803.5,136.9 805.1,136.8 806.8,136.2 808.4,135.5 810.1,134.5 811.7,133.5 813.4,132.4 815.0,132.0 816.7,127.5 818.3,127.2 820.0,126.0" fill="none" stroke="#27231c" stroke-width="4" stroke-linecap="round" stroke-linejoin="round"/>
    <polyline points="72.0,322.0 73.7,322.0 75.3,322.0 77.0,322.0 78.6,322.0 80.3,321.9 81.9,321.7 83.6,321.7 85.2,321.7 86.9,321.7 88.5,321.7 90.2,321.7 91.8,321.7 93.5,321.7 95.1,321.7 96.8,321.7 98.4,321.6 100.1,321.6 101.7,321.6 103.4,321.6 105.0,321.5 106.7,321.5 108.3,321.5 110.0,321.4 111.6,321.4 113.3,321.4 114.9,321.4 116.6,321.4 118.2,321.3 119.9,321.3 121.5,321.0 123.2,321.0 124.8,321.0 126.5,320.8 128.1,320.8 129.8,320.6 131.4,320.6 133.1,320.5 134.7,320.4 136.4,320.3 138.0,320.2 139.7,320.2 141.4,319.9 143.0,319.9 144.7,319.8 146.3,319.7 148.0,319.7 149.6,319.7 151.3,319.7 152.9,319.7 154.6,319.7 156.2,319.7 157.9,319.7 159.5,319.7 161.2,319.7 162.8,319.7 164.5,319.7 166.1,319.7 167.8,319.7 169.4,319.7 171.1,319.7 172.7,319.7 174.4,319.7 176.0,319.6 177.7,319.6 179.3,319.6 181.0,319.6 182.6,319.6 184.3,319.6 185.9,319.5 187.6,319.5 189.2,319.5 190.9,319.5 192.5,319.5 194.2,319.5 195.8,319.5 197.5,319.5 199.1,319.5 200.8,319.5 202.4,319.5 204.1,319.4 205.7,319.4 207.4,319.4 209.1,319.4 210.7,319.4 212.4,319.4 214.0,319.4 215.7,319.4 217.3,319.4 219.0,319.4 220.6,319.4 222.3,319.3 223.9,319.3 225.6,319.3 227.2,319.3 228.9,319.2 230.5,319.2 232.2,319.2 233.8,319.2 235.5,319.2 237.1,319.2 238.8,319.2 240.4,319.2 242.1,319.2 243.7,319.2 245.4,319.1 247.0,319.1 248.7,319.1 250.3,319.1 252.0,319.1 253.6,319.1 255.3,319.1 256.9,319.1 258.6,319.1 260.2,319.1 261.9,319.1 263.5,319.1 265.2,319.1 266.8,319.0 268.5,319.0 270.1,319.0 271.8,319.0 273.4,319.0 275.1,319.0 276.8,319.0 278.4,319.0 280.1,319.0 281.7,318.9 283.4,318.9 285.0,318.9 286.7,318.9 288.3,318.9 290.0,318.8 291.6,318.8 293.3,318.8 294.9,318.8 296.6,318.8 298.2,318.8 299.9,318.8 301.5,318.8 303.2,318.8 304.8,318.8 306.5,318.7 308.1,318.7 309.8,318.7 311.4,318.7 313.1,318.7 314.7,318.7 316.4,318.7 318.0,318.7 319.7,318.7 321.3,318.7 323.0,318.7 324.6,318.7 326.3,318.7 327.9,318.6 329.6,318.6 331.2,318.6 332.9,318.5 334.5,318.5 336.2,318.5 337.8,318.5 339.5,318.5 341.1,318.4 342.8,318.3 344.5,318.2 346.1,318.1 347.8,318.0 349.4,318.0 351.1,318.0 352.7,318.0 354.4,318.0 356.0,318.0 357.7,317.8 359.3,317.8 361.0,317.8 362.6,317.8 364.3,317.8 365.9,317.8 367.6,317.8 369.2,317.8 370.9,317.8 372.5,317.7 374.2,317.7 375.8,317.6 377.5,317.6 379.1,317.4 380.8,317.4 382.4,317.4 384.1,317.3 385.7,317.2 387.4,317.2 389.0,317.2 390.7,317.2 392.3,317.2 394.0,317.0 395.6,317.0 397.3,316.9 398.9,316.4 400.6,316.4 402.2,316.4 403.9,316.4 405.5,316.4 407.2,316.4 408.8,316.4 410.5,316.3 412.2,316.3 413.8,316.3 415.5,316.3 417.1,316.3 418.8,316.3 420.4,316.3 422.1,316.3 423.7,316.3 425.4,316.3 427.0,316.3 428.7,316.3 430.3,316.2 432.0,316.0 433.6,316.0 435.3,316.0 436.9,316.0 438.6,316.0 440.2,316.0 441.9,316.0 443.5,316.0 445.2,316.0 446.8,316.0 448.5,316.0 450.1,316.0 451.8,316.0 453.4,316.0 455.1,315.0 456.7,315.0 458.4,315.0 460.0,315.0 461.7,315.0 463.3,314.9 465.0,314.9 466.6,314.9 468.3,314.9 469.9,314.8 471.6,313.8 473.2,313.8 474.9,313.8 476.5,313.7 478.2,313.7 479.8,313.7 481.5,313.7 483.2,313.7 484.8,313.7 486.5,313.6 488.1,313.6 489.8,313.6 491.4,313.6 493.1,313.0 494.7,313.0 496.4,312.5 498.0,312.5 499.7,311.9 501.3,311.9 503.0,311.4 504.6,311.4 506.3,310.8 507.9,310.8 509.6,310.2 511.2,310.2 512.9,309.7 514.5,309.7 516.2,309.1 517.8,309.1 519.5,308.6 521.1,308.6 522.8,308.0 524.4,308.0 526.1,307.4 527.7,307.4 529.4,306.9 531.0,306.9 532.7,306.3 534.3,306.3 536.0,305.7 537.6,305.7 539.3,305.2 540.9,305.1 542.6,305.0 544.2,305.0 545.9,305.0 547.5,304.9 549.2,304.9 550.9,304.9 552.5,304.9 554.2,304.9 555.8,304.9 557.5,304.8 559.1,304.8 560.8,304.8 562.4,304.8 564.1,304.7 565.7,304.6 567.4,304.6 569.0,304.6 570.7,304.6 572.3,304.6 574.0,304.6 575.6,304.6 577.3,304.5 578.9,304.4 580.6,304.4 582.2,304.4 583.9,304.4 585.5,304.4 587.2,304.4 588.8,304.3 590.5,304.3 592.1,304.3 593.8,304.3 595.4,304.3 597.1,304.3 598.7,304.3 600.4,304.1 602.0,304.1 603.7,304.1 605.3,304.1 607.0,304.0 608.6,304.0 610.3,304.0 611.9,304.0 613.6,303.9 615.2,303.9 616.9,303.9 618.6,303.9 620.2,303.9 621.9,303.9 623.5,303.9 625.2,303.8 626.8,303.8 628.5,303.8 630.1,303.8 631.8,303.8 633.4,303.8 635.1,303.7 636.7,303.7 638.4,303.7 640.0,303.7 641.7,303.7 643.3,303.7 645.0,303.7 646.6,303.6 648.3,303.5 649.9,303.5 651.6,303.5 653.2,303.5 654.9,303.5 656.5,303.4 658.2,303.4 659.8,303.4 661.5,303.4 663.1,303.4 664.8,303.4 666.4,303.4 668.1,303.4 669.7,303.3 671.4,303.3 673.0,303.3 674.7,303.3 676.3,303.2 678.0,303.2 679.6,303.2 681.3,303.0 682.9,302.9 684.6,302.8 686.3,302.8 687.9,302.8 689.6,302.8 691.2,302.8 692.9,302.8 694.5,302.7 696.2,302.7 697.8,302.7 699.5,302.7 701.1,302.7 702.8,302.7 704.4,302.7 706.1,302.6 707.7,302.6 709.4,302.6 711.0,302.6 712.7,302.5 714.3,302.4 716.0,302.4 717.6,302.4 719.3,302.4 720.9,302.4 722.6,302.3 724.2,302.3 725.9,302.3 727.5,302.2 729.2,302.2 730.8,302.2 732.5,302.2 734.1,302.2 735.8,302.1 737.4,302.1 739.1,302.1 740.7,302.1 742.4,302.0 744.0,302.0 745.7,302.0 747.3,302.0 749.0,302.0 750.6,302.0 752.3,301.9 754.0,301.9 755.6,301.9 757.3,301.9 758.9,301.9 760.6,301.9 762.2,301.9 763.9,301.9 765.5,301.9 767.2,301.9 768.8,301.8 770.5,301.8 772.1,301.7 773.8,301.7 775.4,301.7 777.1,301.7 778.7,301.7 780.4,301.7 782.0,301.7 783.7,301.7 785.3,301.7 787.0,301.7 788.6,301.7 790.3,301.7 791.9,301.7 793.6,301.6 795.2,301.6 796.9,301.6 798.5,301.6 800.2,301.6 801.8,301.6 803.5,301.6 805.1,301.6 806.8,301.6 808.4,301.6 810.1,300.6 811.7,299.6 813.4,298.5 815.0,298.5 816.7,294.0 818.3,294.0 820.0,293.9" fill="none" stroke="#8c5f32" stroke-width="4" stroke-linecap="round" stroke-linejoin="round"/>
    <polyline points="72.0,322.0 73.7,321.7 75.3,321.6 77.0,321.4 78.6,321.4 80.3,320.7 81.9,316.9 83.6,316.9 85.2,316.8 86.9,316.8 88.5,316.8 90.2,316.8 91.8,316.7 93.5,316.7 95.1,316.5 96.8,316.5 98.4,315.3 100.1,315.3 101.7,314.5 103.4,314.5 105.0,313.6 106.7,313.4 108.3,312.6 110.0,312.5 111.6,312.5 113.3,312.2 114.9,312.2 116.6,310.8 118.2,310.5 119.9,310.3 121.5,305.1 123.2,304.9 124.8,304.9 126.5,302.2 128.1,302.1 129.8,297.4 131.4,297.2 133.1,295.4 134.7,295.4 136.4,292.9 138.0,291.3 139.7,290.9 141.4,285.2 143.0,285.2 144.7,285.0 146.3,283.1 148.0,283.0 149.6,283.0 151.3,283.0 152.9,283.0 154.6,283.0 156.2,283.0 157.9,282.5 159.5,282.5 161.2,282.2 162.8,282.2 164.5,282.2 166.1,281.9 167.8,281.9 169.4,281.9 171.1,281.8 172.7,281.8 174.4,281.8 176.0,281.5 177.7,281.2 179.3,281.2 181.0,280.9 182.6,280.0 184.3,280.0 185.9,279.8 187.6,279.2 189.2,279.2 190.9,279.2 192.5,279.2 194.2,279.1 195.8,278.5 197.5,278.5 199.1,278.5 200.8,278.5 202.4,278.3 204.1,278.2 205.7,278.2 207.4,278.1 209.1,277.7 210.7,277.7 212.4,277.7 214.0,277.7 215.7,277.7 217.3,277.6 219.0,277.6 220.6,277.5 222.3,276.4 223.9,276.1 225.6,274.9 227.2,274.8 228.9,274.7 230.5,274.7 232.2,274.7 233.8,274.7 235.5,274.1 237.1,274.0 238.8,274.0 240.4,273.9 242.1,273.1 243.7,273.1 245.4,273.0 247.0,273.0 248.7,273.0 250.3,273.0 252.0,272.9 253.6,272.9 255.3,272.4 256.9,272.4 258.6,272.4 260.2,272.4 261.9,272.3 263.5,272.2 265.2,272.1 266.8,271.3 268.5,271.2 270.1,270.7 271.8,270.4 273.4,270.3 275.1,270.2 276.8,270.2 278.4,270.0 280.1,269.9 281.7,269.5 283.4,269.2 285.0,269.2 286.7,269.2 288.3,269.1 290.0,267.5 291.6,267.5 293.3,267.4 294.9,267.4 296.6,267.0 298.2,266.4 299.9,266.4 301.5,266.4 303.2,266.3 304.8,266.3 306.5,266.2 308.1,266.2 309.8,266.2 311.4,266.2 313.1,266.1 314.7,266.1 316.4,266.1 318.0,266.0 319.7,265.1 321.3,265.0 323.0,265.0 324.6,264.7 326.3,264.7 327.9,264.5 329.6,264.4 331.2,262.8 332.9,262.7 334.5,262.7 336.2,262.6 337.8,262.5 339.5,262.0 341.1,261.0 342.8,259.3 344.5,256.3 346.1,255.2 347.8,253.4 349.4,253.4 351.1,253.3 352.7,253.2 354.4,253.2 356.0,253.2 357.7,250.0 359.3,250.0 361.0,249.9 362.6,249.9 364.3,249.9 365.9,249.5 367.6,249.5 369.2,249.5 370.9,249.3 372.5,248.4 374.2,248.2 375.8,247.3 377.5,246.9 379.1,242.4 380.8,242.3 382.4,242.2 384.1,242.1 385.7,240.1 387.4,239.4 389.0,239.3 390.7,238.9 392.3,238.8 394.0,235.5 395.6,235.5 397.3,235.3 398.9,235.3 400.6,235.2 402.2,235.2 403.9,235.2 405.5,235.2 407.2,235.1 408.8,235.1 410.5,233.9 412.2,233.8 413.8,233.7 415.5,233.7 417.1,233.7 418.8,233.7 420.4,233.6 422.1,233.6 423.7,233.6 425.4,233.6 427.0,233.6 428.7,233.5 430.3,232.2 432.0,228.6 433.6,228.5 435.3,228.5 436.9,228.4 438.6,228.4 440.2,228.3 441.9,228.3 443.5,228.3 445.2,228.3 446.8,228.3 448.5,228.2 450.1,228.2 451.8,228.0 453.4,228.0 455.1,228.0 456.7,227.9 458.4,227.9 460.0,227.6 461.7,227.0 463.3,226.3 465.0,225.9 466.6,225.3 468.3,225.2 469.9,224.4 471.6,224.4 473.2,224.3 474.9,224.2 476.5,223.9 478.2,223.7 479.8,223.5 481.5,223.3 483.2,223.2 484.8,222.7 486.5,222.1 488.1,222.1 489.8,221.2 491.4,221.2 493.1,221.2 494.7,221.2 496.4,221.2 498.0,221.1 499.7,221.1 501.3,220.6 503.0,220.6 504.6,220.5 506.3,220.5 507.9,220.3 509.6,220.3 511.2,220.3 512.9,220.3 514.5,219.9 516.2,219.9 517.8,219.7 519.5,219.7 521.1,219.5 522.8,219.5 524.4,219.1 526.1,219.1 527.7,218.5 529.4,218.5 531.0,218.5 532.7,218.5 534.3,218.1 536.0,218.1 537.6,218.0 539.3,218.0 540.9,216.9 542.6,215.3 544.2,215.1 545.9,214.6 547.5,213.8 549.2,213.7 550.9,213.4 552.5,212.8 554.2,212.8 555.8,212.7 557.5,211.9 559.1,211.9 560.8,211.9 562.4,211.7 564.1,210.4 565.7,208.4 567.4,208.3 569.0,208.3 570.7,208.1 572.3,208.0 574.0,207.4 575.6,207.3 577.3,205.6 578.9,205.0 580.6,204.6 582.2,204.5 583.9,204.1 585.5,204.1 587.2,203.8 588.8,203.6 590.5,203.6 592.1,203.6 593.8,203.1 595.4,202.7 597.1,202.4 598.7,202.4 600.4,199.9 602.0,199.5 603.7,199.0 605.3,198.8 607.0,198.2 608.6,198.0 610.3,197.6 611.9,197.5 613.6,196.7 615.2,196.5 616.9,196.5 618.6,196.2 620.2,195.8 621.9,195.6 623.5,195.2 625.2,194.8 626.8,194.6 628.5,194.1 630.1,194.0 631.8,193.8 633.4,193.5 635.1,193.3 636.7,193.3 638.4,192.5 640.0,192.5 641.7,192.0 643.3,191.9 645.0,191.8 646.6,190.4 648.3,189.3 649.9,189.3 651.6,189.0 653.2,188.9 654.9,188.7 656.5,188.3 658.2,188.1 659.8,188.0 661.5,187.5 663.1,187.5 664.8,187.3 666.4,187.2 668.1,187.0 669.7,186.1 671.4,186.0 673.0,186.0 674.7,185.3 676.3,184.2 678.0,183.5 679.6,183.2 681.3,180.5 682.9,178.6 684.6,178.0 686.3,177.8 687.9,177.2 689.6,177.1 691.2,177.0 692.9,176.7 694.5,176.2 696.2,176.0 697.8,175.8 699.5,175.5 701.1,175.0 702.8,175.0 704.4,174.7 706.1,174.3 707.7,174.1 709.4,173.6 711.0,173.5 712.7,172.9 714.3,171.1 716.0,171.1 717.6,170.8 719.3,170.3 720.9,169.8 722.6,169.3 724.2,168.7 725.9,168.7 727.5,167.7 729.2,167.6 730.8,166.6 732.5,166.5 734.1,166.1 735.8,166.0 737.4,165.4 739.1,164.5 740.7,164.3 742.4,163.8 744.0,163.6 745.7,163.6 747.3,163.2 749.0,163.1 750.6,163.1 752.3,162.6 754.0,162.5 755.6,162.5 757.3,162.2 758.9,162.1 760.6,162.1 762.2,161.7 763.9,161.6 765.5,161.5 767.2,161.2 768.8,159.3 770.5,159.2 772.1,159.2 773.8,159.0 775.4,158.8 777.1,158.8 778.7,158.5 780.4,158.2 782.0,158.2 783.7,158.1 785.3,158.1 787.0,158.0 788.6,157.8 790.3,157.8 791.9,157.8 793.6,157.5 795.2,157.4 796.9,157.4 798.5,157.3 800.2,157.3 801.8,157.3 803.5,157.3 805.1,157.2 806.8,156.6 808.4,155.9 810.1,155.9 811.7,155.9 813.4,155.9 815.0,155.5 816.7,155.5 818.3,155.3 820.0,154.1" fill="none" stroke="#3f7558" stroke-width="4" stroke-linecap="round" stroke-linejoin="round"/>
    <text x="72" y="348" class="axis">06-17 03:59</text>
    <text x="820" y="348" class="axis" text-anchor="end">06-19 06:38</text>
  </g>
  <g>
    <rect x="72" y="360" width="16" height="16" rx="3" fill="#27231c"/><text x="96" y="373" class="label">Total 179,185</text>
    <rect x="254" y="360" width="16" height="16" rx="3" fill="#8c5f32"/><text x="278" y="373" class="label">Comments 25,703</text>
    <rect x="476" y="360" width="16" height="16" rx="3" fill="#3f7558"/><text x="500" y="373" class="label">Danmaku 153,482</text>
    <text x="720" y="373" class="label">Runs: 454</text>
  </g>
</svg>
