<svg xmlns="http://www.w3.org/2000/svg" width="920" height="430" viewBox="0 0 920 430" role="img" aria-labelledby="timeline-title timeline-desc">
  <title id="timeline-title">Comment and danmaku collection growth over time</title>
  <desc id="timeline-desc">Cumulative growth lines for total corpus records, comments, and danmaku across recorded harvest runs.</desc>
  <style>
    .bg { fill: #f3ead8; }
    .panel { fill: #fffaf0; stroke: #27231c; stroke-width: 2; }
    .title { font: 700 28px Georgia, 'Times New Roman', serif; fill: #27231c; }
    .sub { font: 14px ui-monospace, SFMono-Regular, Consolas, monospace; fill: #6c6355; }
    .axis { font: 12px ui-monospace, SFMono-Regular, Consolas, monospace; fill: #6c6355; }
    .label { font: 13px ui-monospace, SFMono-Regular, Consolas, monospace; fill: #5d5548; }
  </style>
  <rect class="bg" width="920" height="430" rx="24"/>
  <rect class="panel" x="18" y="18" width="884" height="394" rx="20"/>
  <text x="40" y="62" class="title">Corpus Growth Over Time</text>
  <text x="40" y="88" class="sub">auto-generated from corpus run history on 2026-06-19</text>
  <g>
    
    <line x1="72" y1="322.0" x2="820" y2="322.0" stroke="#d7ccb8" stroke-width="1"/>
    <text x="58" y="326.0" class="axis" text-anchor="end">0</text>
    <line x1="72" y1="273.0" x2="820" y2="273.0" stroke="#d7ccb8" stroke-width="1"/>
    <text x="58" y="277.0" class="axis" text-anchor="end">44,517</text>
    <line x1="72" y1="224.0" x2="820" y2="224.0" stroke="#d7ccb8" stroke-width="1"/>
    <text x="58" y="228.0" class="axis" text-anchor="end">89,035</text>
    <line x1="72" y1="175.0" x2="820" y2="175.0" stroke="#d7ccb8" stroke-width="1"/>
    <text x="58" y="179.0" class="axis" text-anchor="end">133,552</text>
    <line x1="72" y1="126.0" x2="820" y2="126.0" stroke="#d7ccb8" stroke-width="1"/>
    <text x="58" y="130.0" class="axis" text-anchor="end">178,069</text>
    <line x1="72" y1="322" x2="820" y2="322" stroke="#27231c" stroke-width="2"/>
    <line x1="72" y1="126" x2="72" y2="322" stroke="#27231c" stroke-width="2"/>
    <polyline points="72.0,322.0 73.7,321.6 75.3,321.6 77.0,321.4 78.6,321.3 80.3,320.6 81.9,316.6 83.6,316.6 85.2,316.5 86.9,316.4 88.5,316.4 90.2,316.4 91.9,316.4 93.5,316.3 95.2,316.2 96.8,316.2 98.5,314.9 100.1,314.9 101.8,314.0 103.4,314.0 105.1,313.1 106.8,312.8 108.4,312.0 110.1,311.9 111.7,311.9 113.4,311.6 115.0,311.5 116.7,310.1 118.3,309.8 120.0,309.6 121.6,304.0 123.3,303.8 125.0,303.8 126.6,300.9 128.3,300.8 129.9,295.8 131.6,295.6 133.2,293.7 134.9,293.6 136.5,291.0 138.2,289.3 139.8,288.8 141.5,282.8 143.2,282.8 144.8,282.6 146.5,280.6 148.1,280.5 149.8,280.5 151.4,280.5 153.1,280.5 154.7,280.5 156.4,280.5 158.1,279.9 159.7,279.9 161.4,279.6 163.0,279.6 164.7,279.6 166.3,279.3 168.0,279.3 169.6,279.3 171.3,279.2 172.9,279.2 174.6,279.2 176.3,278.9 177.9,278.6 179.6,278.5 181.2,278.3 182.9,277.3 184.5,277.3 186.2,277.1 187.8,276.5 189.5,276.4 191.2,276.4 192.8,276.4 194.5,276.4 196.1,275.7 197.8,275.7 199.4,275.7 201.1,275.6 202.7,275.5 204.4,275.3 206.0,275.3 207.7,275.3 209.4,274.9 211.0,274.8 212.7,274.8 214.3,274.8 216.0,274.8 217.6,274.8 219.3,274.7 220.9,274.6 222.6,273.4 224.2,273.2 225.9,271.8 227.6,271.8 229.2,271.7 230.9,271.7 232.5,271.6 234.2,271.6 235.8,271.0 237.5,270.9 239.1,270.9 240.8,270.8 242.5,270.0 244.1,269.9 245.8,269.9 247.4,269.8 249.1,269.8 250.7,269.8 252.4,269.7 254.0,269.7 255.7,269.2 257.3,269.2 259.0,269.2 260.7,269.1 262.3,269.0 264.0,268.9 265.6,268.8 267.3,268.0 268.9,267.9 270.6,267.4 272.2,267.1 273.9,266.9 275.5,266.9 277.2,266.8 278.9,266.6 280.5,266.6 282.2,266.1 283.8,265.8 285.5,265.8 287.1,265.8 288.8,265.7 290.4,264.0 292.1,264.0 293.8,263.9 295.4,263.9 297.1,263.4 298.7,262.8 300.4,262.8 302.0,262.8 303.7,262.7 305.3,262.7 307.0,262.6 308.6,262.6 310.3,262.5 312.0,262.5 313.6,262.5 315.3,262.5 316.9,262.4 318.6,262.4 320.2,261.4 321.9,261.3 323.5,261.3 325.2,261.0 326.8,260.9 328.5,260.7 330.2,260.7 331.8,259.0 333.5,258.9 335.1,258.9 336.8,258.7 338.4,258.7 340.1,258.1 341.7,257.0 343.4,255.2 345.1,252.1 346.7,250.8 348.4,248.9 350.0,248.9 351.7,248.8 353.3,248.8 355.0,248.7 356.6,248.7 358.3,245.3 359.9,245.3 361.6,245.3 363.3,245.3 364.9,245.3 366.6,244.8 368.2,244.8 369.9,244.8 371.5,244.6 373.2,243.6 374.8,243.4 376.5,242.5 378.2,242.0 379.8,237.2 381.5,237.1 383.1,237.1 384.8,236.9 386.4,234.8 388.1,234.0 389.7,233.9 391.4,233.5 393.0,233.4 394.7,229.9 396.4,229.9 398.0,229.6 399.7,229.1 401.3,229.0 403.0,229.0 404.6,229.0 406.3,229.0 407.9,229.0 409.6,228.9 411.2,227.6 412.9,227.5 414.6,227.5 416.2,227.4 417.9,227.4 419.5,227.4 421.2,227.4 422.8,227.3 424.5,227.3 426.1,227.3 427.8,227.3 429.5,227.2 431.1,225.8 432.8,222.0 434.4,221.9 436.1,221.8 437.7,221.8 439.4,221.8 441.0,221.7 442.7,221.7 444.3,221.7 446.0,221.6 447.7,221.6 449.3,221.6 451.0,221.6 452.6,221.4 454.3,221.3 455.9,220.4 457.6,220.3 459.2,220.3 460.9,220.0 462.5,219.3 464.2,218.5 465.9,218.1 467.5,217.5 469.2,217.4 470.8,216.5 472.5,215.5 474.1,215.4 475.8,215.3 477.4,215.0 479.1,214.7 480.8,214.5 482.4,214.3 484.1,214.2 485.7,213.6 487.4,213.1 489.0,213.1 490.7,212.1 492.3,212.1 494.0,211.6 495.6,211.5 497.3,211.0 499.0,210.9 500.6,210.3 502.3,209.8 503.9,209.3 505.6,209.2 507.2,208.6 508.9,208.4 510.5,207.8 512.2,207.8 513.8,207.3 515.5,206.8 517.2,206.3 518.8,206.1 520.5,205.5 522.1,205.4 523.8,204.8 525.4,204.4 527.1,203.8 528.7,203.2 530.4,202.6 532.1,202.6 533.7,202.1 535.4,201.6 537.0,201.1 538.7,201.0 540.3,200.4 542.0,199.2 543.6,197.5 545.3,197.4 546.9,196.8 548.6,196.0 550.3,195.9 551.9,195.6 553.6,194.9 555.2,194.9 556.9,194.8 558.5,194.0 560.2,194.0 561.8,193.9 563.5,193.7 565.2,192.4 566.8,190.2 568.5,190.1 570.1,190.1 571.8,189.9 573.4,189.8 575.1,189.1 576.7,189.0 578.4,187.2 580.0,186.5 581.7,186.2 583.4,186.1 585.0,185.7 586.7,185.6 588.3,185.3 590.0,185.1 591.6,185.1 593.3,185.1 594.9,184.5 596.6,184.1 598.2,183.8 599.9,183.8 601.6,181.1 603.2,180.8 604.9,180.2 606.5,180.0 608.2,179.3 609.8,179.1 611.5,178.7 613.1,178.6 614.8,177.8 616.5,177.5 618.1,177.5 619.8,177.2 621.4,176.8 623.1,176.6 624.7,176.1 626.4,175.7 628.0,175.5 629.7,175.0 631.3,174.9 633.0,174.6 634.7,174.3 636.3,174.1 638.0,174.1 639.6,173.3 641.3,173.2 642.9,172.7 644.6,172.6 646.2,172.6 647.9,171.1 649.5,169.9 651.2,169.8 652.9,169.5 654.5,169.4 656.2,169.2 657.8,168.8 659.5,168.6 661.1,168.5 662.8,168.0 664.4,167.9 666.1,167.7 667.8,167.7 669.4,167.4 671.1,166.4 672.7,166.4 674.4,166.3 676.0,165.6 677.7,164.4 679.3,163.7 681.0,163.4 682.6,160.4 684.3,158.5 686.0,157.9 687.6,157.6 689.3,157.0 690.9,156.9 692.6,156.8 694.2,156.5 695.9,155.9 697.5,155.7 699.2,155.4 700.8,155.2 702.5,154.7 704.2,154.6 705.8,154.4 707.5,153.8 709.1,153.7 710.8,153.2 712.4,153.1 714.1,152.3 715.7,150.5 717.4,150.4 719.1,150.1 720.7,149.6 722.4,149.1 724.0,148.6 725.7,148.0 727.3,147.9 729.0,146.8 730.6,146.8 732.3,145.7 733.9,145.6 735.6,145.1 737.3,145.0 738.9,144.4 740.6,143.5 742.2,143.3 743.9,142.7 745.5,142.5 747.2,142.5 748.8,142.1 750.5,142.0 752.2,142.0 753.8,141.5 755.5,141.4 757.1,141.3 758.8,141.0 760.4,140.9 762.1,140.9 763.7,140.4 765.4,140.4 767.0,140.3 768.7,140.0 770.4,137.9 772.0,137.9 773.7,137.8 775.3,137.6 777.0,137.4 778.6,137.4 780.3,137.1 781.9,136.8 783.6,136.7 785.2,136.6 786.9,136.6 788.6,136.5 790.2,136.3 791.9,136.3 793.5,136.3 795.2,135.9 796.8,135.9 798.5,135.8 800.1,135.8 801.8,135.8 803.5,135.7 805.1,135.7 806.8,135.6 808.4,135.0 810.1,134.3 811.7,133.3 813.4,132.3 815.0,131.2 816.7,130.8 818.3,126.3 820.0,126.0" fill="none" stroke="#27231c" stroke-width="4" stroke-linecap="round" stroke-linejoin="round"/>
    <polyline points="72.0,322.0 73.7,322.0 75.3,322.0 77.0,322.0 78.6,322.0 80.3,321.9 81.9,321.7 83.6,321.7 85.2,321.7 86.9,321.7 88.5,321.7 90.2,321.7 91.9,321.7 93.5,321.7 95.2,321.7 96.8,321.7 98.5,321.6 100.1,321.6 101.8,321.6 103.4,321.6 105.1,321.5 106.8,321.5 108.4,321.4 110.1,321.4 111.7,321.4 113.4,321.4 115.0,321.4 116.7,321.3 118.3,321.3 120.0,321.3 121.6,321.0 123.3,321.0 125.0,321.0 126.6,320.8 128.3,320.8 129.9,320.5 131.6,320.5 133.2,320.4 134.9,320.4 136.5,320.3 138.2,320.2 139.8,320.2 141.5,319.8 143.2,319.8 144.8,319.8 146.5,319.7 148.1,319.7 149.8,319.7 151.4,319.7 153.1,319.7 154.7,319.7 156.4,319.7 158.1,319.7 159.7,319.7 161.4,319.7 163.0,319.7 164.7,319.7 166.3,319.6 168.0,319.6 169.6,319.6 171.3,319.6 172.9,319.6 174.6,319.6 176.3,319.6 177.9,319.6 179.6,319.6 181.2,319.6 182.9,319.5 184.5,319.5 186.2,319.5 187.8,319.5 189.5,319.5 191.2,319.5 192.8,319.5 194.5,319.5 196.1,319.4 197.8,319.4 199.4,319.4 201.1,319.4 202.7,319.4 204.4,319.4 206.0,319.4 207.7,319.4 209.4,319.4 211.0,319.4 212.7,319.4 214.3,319.4 216.0,319.4 217.6,319.4 219.3,319.4 220.9,319.4 222.6,319.3 224.2,319.3 225.9,319.2 227.6,319.2 229.2,319.2 230.9,319.2 232.5,319.2 234.2,319.2 235.8,319.2 237.5,319.2 239.1,319.2 240.8,319.2 242.5,319.1 244.1,319.1 245.8,319.1 247.4,319.1 249.1,319.1 250.7,319.1 252.4,319.1 254.0,319.1 255.7,319.1 257.3,319.1 259.0,319.1 260.7,319.1 262.3,319.1 264.0,319.1 265.6,319.1 267.3,319.0 268.9,319.0 270.6,319.0 272.2,319.0 273.9,319.0 275.5,318.9 277.2,318.9 278.9,318.9 280.5,318.9 282.2,318.9 283.8,318.9 285.5,318.9 287.1,318.9 288.8,318.9 290.4,318.8 292.1,318.8 293.8,318.8 295.4,318.8 297.1,318.8 298.7,318.7 300.4,318.7 302.0,318.7 303.7,318.7 305.3,318.7 307.0,318.7 308.6,318.7 310.3,318.7 312.0,318.7 313.6,318.7 315.3,318.7 316.9,318.7 318.6,318.7 320.2,318.6 321.9,318.6 323.5,318.6 325.2,318.6 326.8,318.6 328.5,318.6 330.2,318.6 331.8,318.5 333.5,318.5 335.1,318.5 336.8,318.5 338.4,318.5 340.1,318.5 341.7,318.4 343.4,318.3 345.1,318.1 346.7,318.1 348.4,318.0 350.0,318.0 351.7,318.0 353.3,317.9 355.0,317.9 356.6,317.9 358.3,317.8 359.9,317.8 361.6,317.8 363.3,317.8 364.9,317.8 366.6,317.7 368.2,317.7 369.9,317.7 371.5,317.7 373.2,317.7 374.8,317.7 376.5,317.6 378.2,317.6 379.8,317.3 381.5,317.3 383.1,317.3 384.8,317.3 386.4,317.2 388.1,317.1 389.7,317.1 391.4,317.1 393.0,317.1 394.7,316.9 396.4,316.9 398.0,316.9 399.7,316.3 401.3,316.3 403.0,316.3 404.6,316.3 406.3,316.3 407.9,316.3 409.6,316.3 411.2,316.3 412.9,316.3 414.6,316.2 416.2,316.2 417.9,316.2 419.5,316.2 421.2,316.2 422.8,316.2 424.5,316.2 426.1,316.2 427.8,316.2 429.5,316.2 431.1,316.2 432.8,315.9 434.4,315.9 436.1,315.9 437.7,315.9 439.4,315.9 441.0,315.9 442.7,315.9 444.3,315.9 446.0,315.9 447.7,315.9 449.3,315.9 451.0,315.9 452.6,315.9 454.3,315.9 455.9,314.9 457.6,314.9 459.2,314.9 460.9,314.9 462.5,314.9 464.2,314.8 465.9,314.8 467.5,314.8 469.2,314.8 470.8,314.7 472.5,313.7 474.1,313.7 475.8,313.7 477.4,313.7 479.1,313.6 480.8,313.6 482.4,313.6 484.1,313.6 485.7,313.6 487.4,313.6 489.0,313.6 490.7,313.5 492.3,313.5 494.0,312.9 495.6,312.9 497.3,312.4 499.0,312.4 500.6,311.8 502.3,311.8 503.9,311.3 505.6,311.3 507.2,310.7 508.9,310.7 510.5,310.1 512.2,310.1 513.8,309.6 515.5,309.6 517.2,309.0 518.8,309.0 520.5,308.5 522.1,308.4 523.8,307.9 525.4,307.9 527.1,307.3 528.7,307.3 530.4,306.7 532.1,306.7 533.7,306.2 535.4,306.2 537.0,305.6 538.7,305.6 540.3,305.0 542.0,305.0 543.6,304.9 545.3,304.9 546.9,304.8 548.6,304.8 550.3,304.8 551.9,304.8 553.6,304.7 555.2,304.7 556.9,304.7 558.5,304.7 560.2,304.7 561.8,304.7 563.5,304.7 565.2,304.6 566.8,304.5 568.5,304.5 570.1,304.5 571.8,304.5 573.4,304.5 575.1,304.4 576.7,304.4 578.4,304.3 580.0,304.3 581.7,304.3 583.4,304.3 585.0,304.2 586.7,304.2 588.3,304.2 590.0,304.2 591.6,304.2 593.3,304.2 594.9,304.2 596.6,304.1 598.2,304.1 599.9,304.1 601.6,304.0 603.2,304.0 604.9,303.9 606.5,303.9 608.2,303.9 609.8,303.9 611.5,303.8 613.1,303.8 614.8,303.8 616.5,303.8 618.1,303.8 619.8,303.8 621.4,303.7 623.1,303.7 624.7,303.7 626.4,303.7 628.0,303.7 629.7,303.6 631.3,303.6 633.0,303.6 634.7,303.6 636.3,303.6 638.0,303.6 639.6,303.5 641.3,303.5 642.9,303.5 644.6,303.5 646.2,303.5 647.9,303.4 649.5,303.4 651.2,303.4 652.9,303.3 654.5,303.3 656.2,303.3 657.8,303.3 659.5,303.3 661.1,303.3 662.8,303.2 664.4,303.2 666.1,303.2 667.8,303.2 669.4,303.2 671.1,303.2 672.7,303.2 674.4,303.2 676.0,303.1 677.7,303.1 679.3,303.0 681.0,303.0 682.6,302.8 684.3,302.7 686.0,302.7 687.6,302.7 689.3,302.6 690.9,302.6 692.6,302.6 694.2,302.6 695.9,302.6 697.5,302.6 699.2,302.6 700.8,302.5 702.5,302.5 704.2,302.5 705.8,302.5 707.5,302.5 709.1,302.5 710.8,302.4 712.4,302.4 714.1,302.4 715.7,302.3 717.4,302.3 719.1,302.3 720.7,302.2 722.4,302.2 724.0,302.2 725.7,302.1 727.3,302.1 729.0,302.1 730.6,302.1 732.3,302.0 733.9,302.0 735.6,302.0 737.3,302.0 738.9,301.9 740.6,301.9 742.2,301.9 743.9,301.9 745.5,301.8 747.2,301.8 748.8,301.8 750.5,301.8 752.2,301.8 753.8,301.8 755.5,301.8 757.1,301.8 758.8,301.8 760.4,301.8 762.1,301.7 763.7,301.7 765.4,301.7 767.0,301.7 768.7,301.7 770.4,301.6 772.0,301.6 773.7,301.6 775.3,301.6 777.0,301.6 778.6,301.6 780.3,301.5 781.9,301.5 783.6,301.5 785.2,301.5 786.9,301.5 788.6,301.5 790.2,301.5 791.9,301.5 793.5,301.5 795.2,301.5 796.8,301.5 798.5,301.5 800.1,301.5 801.8,301.5 803.5,301.5 805.1,301.5 806.8,301.5 808.4,301.4 810.1,301.4 811.7,300.4 813.4,299.4 815.0,298.3 816.7,298.3 818.3,293.7 820.0,293.7" fill="none" stroke="#8c5f32" stroke-width="4" stroke-linecap="round" stroke-linejoin="round"/>
    <polyline points="72.0,322.0 73.7,321.7 75.3,321.6 77.0,321.4 78.6,321.4 80.3,320.7 81.9,316.9 83.6,316.9 85.2,316.8 86.9,316.7 88.5,316.7 90.2,316.7 91.9,316.7 93.5,316.6 95.2,316.5 96.8,316.5 98.5,315.3 100.1,315.3 101.8,314.5 103.4,314.5 105.1,313.6 106.8,313.3 108.4,312.5 110.1,312.4 111.7,312.4 113.4,312.1 115.0,312.1 116.7,310.8 118.3,310.4 120.0,310.3 121.6,305.0 123.3,304.8 125.0,304.8 126.6,302.1 128.3,301.9 129.9,297.2 131.6,297.1 133.2,295.3 134.9,295.2 136.5,292.7 138.2,291.1 139.8,290.7 141.5,284.9 143.2,284.9 144.8,284.8 146.5,282.9 148.1,282.8 149.8,282.8 151.4,282.8 153.1,282.8 154.7,282.8 156.4,282.8 158.1,282.3 159.7,282.2 161.4,282.0 163.0,282.0 164.7,282.0 166.3,281.7 168.0,281.7 169.6,281.6 171.3,281.6 172.9,281.6 174.6,281.5 176.3,281.3 177.9,281.0 179.6,281.0 181.2,280.7 182.9,279.8 184.5,279.8 186.2,279.6 187.8,279.0 189.5,278.9 191.2,278.9 192.8,278.9 194.5,278.9 196.1,278.2 197.8,278.2 199.4,278.2 201.1,278.2 202.7,278.0 204.4,277.9 206.0,277.9 207.7,277.8 209.4,277.5 211.0,277.4 212.7,277.4 214.3,277.4 216.0,277.4 217.6,277.4 219.3,277.3 220.9,277.2 222.6,276.1 224.2,275.9 225.9,274.6 227.6,274.5 229.2,274.5 230.9,274.4 232.5,274.4 234.2,274.4 235.8,273.8 237.5,273.7 239.1,273.7 240.8,273.6 242.5,272.8 244.1,272.8 245.8,272.7 247.4,272.7 249.1,272.7 250.7,272.7 252.4,272.6 254.0,272.6 255.7,272.1 257.3,272.1 259.0,272.1 260.7,272.1 262.3,272.0 264.0,271.9 265.6,271.8 267.3,271.0 268.9,270.9 270.6,270.4 272.2,270.1 273.9,269.9 275.5,269.9 277.2,269.9 278.9,269.6 280.5,269.6 282.2,269.2 283.8,268.9 285.5,268.9 287.1,268.9 288.8,268.8 290.4,267.2 292.1,267.2 293.8,267.1 295.4,267.1 297.1,266.6 298.7,266.1 300.4,266.1 302.0,266.1 303.7,266.0 305.3,266.0 307.0,265.9 308.6,265.9 310.3,265.8 312.0,265.8 313.6,265.8 315.3,265.7 316.9,265.7 318.6,265.7 320.2,264.8 321.9,264.7 323.5,264.6 325.2,264.3 326.8,264.3 328.5,264.1 330.2,264.1 331.8,262.5 333.5,262.4 335.1,262.4 336.8,262.2 338.4,262.2 340.1,261.6 341.7,260.6 343.4,258.9 345.1,255.9 346.7,254.7 348.4,252.9 350.0,252.9 351.7,252.9 353.3,252.8 355.0,252.7 356.6,252.7 358.3,249.5 359.9,249.5 361.6,249.5 363.3,249.5 364.9,249.5 366.6,249.1 368.2,249.1 369.9,249.1 371.5,248.9 373.2,247.9 374.8,247.8 376.5,246.9 378.2,246.5 379.8,241.9 381.5,241.8 383.1,241.8 384.8,241.6 386.4,239.6 388.1,238.9 389.7,238.8 391.4,238.4 393.0,238.3 394.7,235.0 396.4,235.0 398.0,234.7 399.7,234.7 401.3,234.7 403.0,234.7 404.6,234.6 406.3,234.6 407.9,234.6 409.6,234.6 411.2,233.4 412.9,233.3 414.6,233.2 416.2,233.2 417.9,233.2 419.5,233.1 421.2,233.1 422.8,233.1 424.5,233.1 426.1,233.1 427.8,233.0 429.5,233.0 431.1,231.6 432.8,228.0 434.4,227.9 436.1,227.9 437.7,227.9 439.4,227.8 441.0,227.8 442.7,227.7 444.3,227.7 446.0,227.7 447.7,227.7 449.3,227.7 451.0,227.6 452.6,227.5 454.3,227.4 455.9,227.4 457.6,227.4 459.2,227.3 460.9,227.1 462.5,226.4 464.2,225.7 465.9,225.3 467.5,224.7 469.2,224.6 470.8,223.8 472.5,223.8 474.1,223.7 475.8,223.6 477.4,223.4 479.1,223.1 480.8,222.9 482.4,222.7 484.1,222.6 485.7,222.1 487.4,221.5 489.0,221.5 490.7,220.6 492.3,220.6 494.0,220.6 495.6,220.6 497.3,220.6 499.0,220.5 500.6,220.5 502.3,220.0 503.9,220.0 505.6,219.9 507.2,219.9 508.9,219.7 510.5,219.7 512.2,219.7 513.8,219.7 515.5,219.3 517.2,219.3 518.8,219.1 520.5,219.1 522.1,218.9 523.8,218.9 525.4,218.5 527.1,218.5 528.7,217.9 530.4,217.9 532.1,217.9 533.7,217.9 535.4,217.5 537.0,217.5 538.7,217.4 540.3,217.4 542.0,216.2 543.6,214.6 545.3,214.5 546.9,213.9 548.6,213.2 550.3,213.1 551.9,212.8 553.6,212.2 555.2,212.1 556.9,212.1 558.5,211.3 560.2,211.3 561.8,211.2 563.5,211.0 565.2,209.8 566.8,207.8 568.5,207.6 570.1,207.6 571.8,207.4 573.4,207.3 575.1,206.7 576.7,206.6 578.4,204.9 580.0,204.3 581.7,203.9 583.4,203.8 585.0,203.4 586.7,203.4 588.3,203.1 590.0,202.9 591.6,202.9 593.3,202.9 594.9,202.4 596.6,202.0 598.2,201.7 599.9,201.7 601.6,199.1 603.2,198.8 604.9,198.3 606.5,198.1 608.2,197.5 609.8,197.3 611.5,196.8 613.1,196.8 614.8,196.0 616.5,195.8 618.1,195.7 619.8,195.4 621.4,195.1 623.1,194.9 624.7,194.4 626.4,194.0 628.0,193.8 629.7,193.4 631.3,193.2 633.0,193.0 634.7,192.7 636.3,192.5 638.0,192.5 639.6,191.8 641.3,191.7 642.9,191.2 644.6,191.1 646.2,191.1 647.9,189.6 649.5,188.5 651.2,188.5 652.9,188.2 654.5,188.1 656.2,187.9 657.8,187.5 659.5,187.3 661.1,187.2 662.8,186.7 664.4,186.7 666.1,186.5 667.8,186.4 669.4,186.2 671.1,185.3 672.7,185.2 674.4,185.2 676.0,184.5 677.7,183.4 679.3,182.7 681.0,182.4 682.6,179.6 684.3,177.8 686.0,177.2 687.6,177.0 689.3,176.3 690.9,176.2 692.6,176.1 694.2,175.8 695.9,175.3 697.5,175.1 699.2,174.9 700.8,174.6 702.5,174.2 704.2,174.1 705.8,173.9 707.5,173.4 709.1,173.3 710.8,172.7 712.4,172.6 714.1,172.0 715.7,170.2 717.4,170.2 719.1,169.9 720.7,169.3 722.4,168.9 724.0,168.4 725.7,167.8 727.3,167.8 729.0,166.8 730.6,166.7 732.3,165.6 733.9,165.6 735.6,165.2 737.3,165.0 738.9,164.4 740.6,163.6 742.2,163.4 743.9,162.9 745.5,162.7 747.2,162.6 748.8,162.3 750.5,162.2 752.2,162.2 753.8,161.7 755.5,161.6 757.1,161.5 758.8,161.2 760.4,161.1 762.1,161.1 763.7,160.7 765.4,160.7 767.0,160.6 768.7,160.3 770.4,158.3 772.0,158.3 773.7,158.2 775.3,158.1 777.0,157.9 778.6,157.8 780.3,157.5 781.9,157.2 783.6,157.2 785.2,157.1 786.9,157.1 788.6,157.0 790.2,156.8 791.9,156.8 793.5,156.8 795.2,156.5 796.8,156.5 798.5,156.4 800.1,156.3 801.8,156.3 803.5,156.3 805.1,156.3 806.8,156.2 808.4,155.6 810.1,154.9 811.7,154.9 813.4,154.9 815.0,154.9 816.7,154.5 818.3,154.5 820.0,154.3" fill="none" stroke="#3f7558" stroke-width="4" stroke-linecap="round" stroke-linejoin="round"/>
    <text x="72" y="348" class="axis">06-17 03:59</text>
    <text x="820" y="348" class="axis" text-anchor="end">06-19 06:17</text>
  </g>
  <g>
    <rect x="72" y="360" width="16" height="16" rx="3" fill="#27231c"/><text x="96" y="373" class="label">Total 178,069</text>
    <rect x="254" y="360" width="16" height="16" rx="3" fill="#8c5f32"/><text x="278" y="373" class="label">Comments 25,680</text>
    <rect x="476" y="360" width="16" height="16" rx="3" fill="#3f7558"/><text x="500" y="373" class="label">Danmaku 152,389</text>
    <text x="720" y="373" class="label">Runs: 453</text>
  </g>
</svg>
