<svg xmlns="http://www.w3.org/2000/svg" width="920" height="430" viewBox="0 0 920 430" role="img" aria-labelledby="title desc">
  <title id="title">Bilibili User Personality data collection and keyword analysis stats</title>
  <desc id="desc">Current counts for collected comments, danmaku, and analyzed dictionary keywords.</desc>
  <style>
    .bg { fill: #f7f0df; }
    .panel { fill: #fffaf0; stroke: #27231c; stroke-width: 2; }
    .title { font: 700 28px Georgia, 'Times New Roman', serif; fill: #27231c; }
    .sub { font: 14px ui-monospace, SFMono-Regular, Consolas, monospace; fill: #6c6355; }
    .label { font: 700 18px ui-monospace, SFMono-Regular, Consolas, monospace; fill: #27231c; }
    .value { font: 700 18px ui-monospace, SFMono-Regular, Consolas, monospace; fill: #27231c; text-anchor: start; }
    .small { font: 13px ui-monospace, SFMono-Regular, Consolas, monospace; fill: #5d5548; }
    .metric { font: 700 26px ui-monospace, SFMono-Regular, Consolas, monospace; fill: #27231c; }
  </style>
  <rect class="bg" width="920" height="430" rx="24"/>
  <rect class="panel" x="18" y="18" width="884" height="394" rx="20"/>
  <text x="40" y="62" class="title">Corpus Collection + Keyword Analysis</text>
  <text x="40" y="88" class="sub">auto-generated from repo data on 2026-06-19</text>
  <g>
    <rect x="40" y="112" width="250" height="82" rx="16" fill="#eadfca" stroke="#27231c"/>
    <text x="62" y="146" class="small">comments / replies</text>
    <text x="62" y="177" class="metric">25,711</text>
    <rect x="318" y="112" width="250" height="82" rx="16" fill="#dbe8df" stroke="#27231c"/>
    <text x="340" y="146" class="small">danmaku</text>
    <text x="340" y="177" class="metric">153,482</text>
    <rect x="596" y="112" width="250" height="82" rx="16" fill="#e5d7bc" stroke="#27231c"/>
    <text x="618" y="146" class="small">keyword terms analyzed</text>
    <text x="618" y="177" class="metric">1,579</text>
  </g>
  <g>
    
    <text x="40" y="246" class="label">Comments</text>
    <rect x="220" y="228" width="440" height="24" rx="12" fill="#e8e1d2"/>
    <rect x="220" y="228" width="74" height="24" rx="12" fill="#8c5f32"/>
    <text x="680" y="246" class="value">25,711</text>
    
    <text x="40" y="292" class="label">Danmaku</text>
    <rect x="220" y="274" width="440" height="24" rx="12" fill="#e8e1d2"/>
    <rect x="220" y="274" width="440" height="24" rx="12" fill="#3f7558"/>
    <text x="680" y="292" class="value">153,482</text>
    
    <text x="40" y="338" class="label">Keywords</text>
    <rect x="220" y="320" width="440" height="24" rx="12" fill="#e8e1d2"/>
    <rect x="220" y="320" width="5" height="24" rx="12" fill="#b98522"/>
    <text x="680" y="338" class="value">1,579</text>
  </g>
  <text x="40" y="382" class="small">Coverage: 97.09% | Weak terms: 46 | Evidence deficit: 86</text>
</svg>
