<svg xmlns="http://www.w3.org/2000/svg" width="920" height="430" viewBox="0 0 920 430" role="img" aria-labelledby="timeline-title timeline-desc">
  <title id="timeline-title">Comment and danmaku collection growth over time</title>
  <desc id="timeline-desc">Cumulative growth lines for total corpus records, comments, and danmaku across recorded harvest runs.</desc>
  <style>
    .bg { fill: #f3ead8; }
    .panel { fill: #fffaf0; stroke: #27231c; stroke-width: 2; }
    .title { font: 700 28px Georgia, 'Times New Roman', serif; fill: #27231c; }
    .sub { font: 14px ui-monospace, SFMono-Regular, Consolas, monospace; fill: #6c6355; }
    .axis { font: 12px ui-monospace, SFMono-Regular, Consolas, monospace; fill: #6c6355; }
    .label { font: 13px ui-monospace, SFMono-Regular, Consolas, monospace; fill: #5d5548; }
  </style>
  <rect class="bg" width="920" height="430" rx="24"/>
  <rect class="panel" x="18" y="18" width="884" height="394" rx="20"/>
  <text x="40" y="62" class="title">Corpus Growth Over Time</text>
  <text x="40" y="88" class="sub">auto-generated from corpus run history on 2026-06-27</text>
  <g>
    <line x1="72" y1="322.0" x2="820" y2="322.0" stroke="#d7ccb8" stroke-width="1"/>
    <text x="58" y="326.0" class="axis" text-anchor="end">0</text>
    <line x1="72" y1="273.0" x2="820" y2="273.0" stroke="#d7ccb8" stroke-width="1"/>
    <text x="58" y="277.0" class="axis" text-anchor="end">50,000</text>
    <line x1="72" y1="224.0" x2="820" y2="224.0" stroke="#d7ccb8" stroke-width="1"/>
    <text x="58" y="228.0" class="axis" text-anchor="end">100,000</text>
    <line x1="72" y1="175.0" x2="820" y2="175.0" stroke="#d7ccb8" stroke-width="1"/>
    <text x="58" y="179.0" class="axis" text-anchor="end">150,000</text>
    <line x1="72" y1="126.0" x2="820" y2="126.0" stroke="#d7ccb8" stroke-width="1"/>
    <text x="58" y="130.0" class="axis" text-anchor="end">200,000</text>
    <line x1="72" y1="322" x2="820" y2="322" stroke="#27231c" stroke-width="2"/>
    <line x1="72" y1="126" x2="72" y2="322" stroke="#27231c" stroke-width="2"/>
    <polyline points="72.0,322.0 73.6,321.7 75.3,321.6 76.9,321.5 78.6,321.4 80.2,320.7 81.9,317.2 83.5,317.2 85.2,317.1 86.8,317.0 88.4,317.0 90.1,317.0 91.7,317.0 93.4,316.9 95.0,316.8 96.7,316.8 98.3,315.7 99.9,315.7 101.6,314.9 103.2,314.9 104.9,314.0 106.5,313.8 108.2,313.1 109.8,313.0 111.5,313.0 113.1,312.7 114.7,312.7 116.4,311.4 118.0,311.1 119.7,310.9 121.3,306.0 123.0,305.8 124.6,305.8 126.3,303.3 127.9,303.1 129.5,298.6 131.2,298.5 132.8,296.8 134.5,296.7 136.1,294.4 137.8,292.8 139.4,292.5 141.0,287.1 142.7,287.1 144.3,287.0 146.0,285.1 147.6,285.0 149.3,285.0 150.9,285.0 152.6,285.0 154.2,285.0 155.8,285.0 157.5,284.5 159.1,284.5 160.8,284.3 162.4,284.3 164.1,284.3 165.7,284.0 167.3,284.0 169.0,283.9 170.6,283.9 172.3,283.9 173.9,283.9 175.6,283.6 177.2,283.3 178.9,283.3 180.5,283.1 182.1,282.2 183.8,282.2 185.4,282.0 187.1,281.5 188.7,281.4 190.4,281.4 192.0,281.4 193.7,281.4 195.3,280.8 196.9,280.8 198.6,280.7 200.2,280.7 201.9,280.6 203.5,280.4 205.2,280.4 206.8,280.4 208.4,280.0 210.1,280.0 211.7,280.0 213.4,280.0 215.0,280.0 216.7,279.9 218.3,279.9 220.0,279.8 221.6,278.7 223.2,278.5 224.9,277.3 226.5,277.3 228.2,277.2 229.8,277.2 231.5,277.2 233.1,277.1 234.8,276.6 236.4,276.5 238.0,276.5 239.7,276.4 241.3,275.7 243.0,275.6 244.6,275.6 246.3,275.5 247.9,275.5 249.5,275.5 251.2,275.5 252.8,275.5 254.5,275.0 256.1,275.0 257.8,275.0 259.4,274.9 261.1,274.8 262.7,274.7 264.3,274.7 266.0,273.9 267.6,273.8 269.3,273.4 270.9,273.1 272.6,272.9 274.2,272.9 275.9,272.9 277.5,272.7 279.1,272.6 280.8,272.2 282.4,272.0 284.1,271.9 285.7,271.9 287.4,271.9 289.0,270.4 290.6,270.3 292.3,270.2 293.9,270.2 295.6,269.8 297.2,269.3 298.9,269.3 300.5,269.3 302.2,269.2 303.8,269.2 305.4,269.1 307.1,269.1 308.7,269.1 310.4,269.1 312.0,269.0 313.7,269.0 315.3,269.0 316.9,268.9 318.6,268.1 320.2,268.0 321.9,267.9 323.5,267.7 325.2,267.6 326.8,267.4 328.5,267.4 330.1,265.9 331.7,265.8 333.4,265.8 335.0,265.7 336.7,265.6 338.3,265.1 340.0,264.2 341.6,262.6 343.3,259.7 344.9,258.6 346.5,256.9 348.2,256.9 349.8,256.8 351.5,256.8 353.1,256.7 354.8,256.7 356.4,253.7 358.0,253.7 359.7,253.7 361.3,253.7 363.0,253.7 364.6,253.3 366.3,253.3 367.9,253.3 369.6,253.1 371.2,252.2 372.8,252.0 374.5,251.2 376.1,250.8 377.8,246.5 379.4,246.4 381.1,246.4 382.7,246.3 384.4,244.3 386.0,243.7 387.6,243.6 389.3,243.2 390.9,243.1 392.6,240.0 394.2,240.0 395.9,239.8 397.5,239.3 399.1,239.2 400.8,239.2 402.4,239.2 404.1,239.2 405.7,239.2 407.4,239.1 409.0,238.0 410.7,237.9 412.3,237.8 413.9,237.8 415.6,237.8 417.2,237.7 418.9,237.7 420.5,237.7 422.2,237.7 423.8,237.7 425.5,237.7 427.1,237.6 428.7,236.3 430.4,232.9 432.0,232.9 433.7,232.8 435.3,232.8 437.0,232.7 438.6,232.7 440.2,232.7 441.9,232.7 443.5,232.6 445.2,232.6 446.8,232.6 448.5,232.6 450.1,232.4 451.8,232.4 453.4,231.5 455.0,231.5 456.7,231.4 458.3,231.2 460.0,230.6 461.6,229.9 463.3,229.5 464.9,229.0 466.5,228.9 468.2,228.1 469.8,227.1 471.5,227.1 473.1,227.0 474.8,226.7 476.4,226.5 478.1,226.3 479.7,226.1 481.3,226.0 483.0,225.5 484.6,225.0 486.3,225.0 487.9,224.2 489.6,224.2 491.2,223.7 492.9,223.6 494.5,223.1 496.1,223.1 497.8,222.6 499.4,222.1 501.1,221.6 502.7,221.5 504.4,221.1 506.0,220.8 507.6,220.4 509.3,220.3 510.9,219.8 512.6,219.5 514.2,219.0 515.9,218.8 517.5,218.3 519.2,218.2 520.8,217.7 522.4,217.3 524.1,216.8 525.7,216.2 527.4,215.7 529.0,215.7 530.7,215.2 532.3,214.8 534.0,214.3 535.6,214.2 537.2,213.7 538.9,212.7 540.5,211.2 542.2,211.0 543.8,210.5 545.5,209.8 547.1,209.7 548.7,209.4 550.4,208.8 552.0,208.8 553.7,208.8 555.3,208.0 557.0,208.0 558.6,208.0 560.3,207.8 561.9,206.6 563.5,204.7 565.2,204.6 566.8,204.5 568.5,204.4 570.1,204.3 571.8,203.7 573.4,203.6 575.1,202.0 576.7,201.4 578.3,201.1 580.0,201.0 581.6,200.6 583.3,200.6 584.9,200.3 586.6,200.1 588.2,200.1 589.8,200.1 591.5,199.6 593.1,199.2 594.8,199.0 596.4,198.9 598.1,196.6 599.7,196.3 601.4,195.8 603.0,195.5 604.6,195.0 606.3,194.8 607.9,194.4 609.6,194.4 611.2,193.6 612.9,193.4 614.5,193.4 616.1,193.1 617.8,192.7 619.4,192.6 621.1,192.1 622.7,191.7 624.4,191.6 626.0,191.1 627.7,191.0 629.3,190.8 630.9,190.5 632.6,190.3 634.2,190.3 635.9,189.6 637.5,189.5 639.2,189.1 640.8,189.0 642.5,188.9 644.1,187.6 645.7,186.6 647.4,186.5 649.0,186.2 650.7,186.2 652.3,186.0 654.0,185.6 655.6,185.4 657.2,185.3 658.9,184.9 660.5,184.8 662.2,184.6 663.8,184.6 665.5,184.4 667.1,183.5 668.8,183.5 670.4,183.4 672.0,182.8 673.7,181.7 675.3,181.1 677.0,180.8 678.6,178.2 680.3,176.4 681.9,175.9 683.6,175.7 685.2,175.1 686.8,175.0 688.5,174.9 690.1,174.6 691.8,174.1 693.4,174.0 695.1,173.7 696.7,173.4 698.3,173.0 700.0,173.0 701.6,172.7 703.3,172.3 704.9,172.2 706.6,171.7 708.2,171.6 709.9,171.0 711.5,169.3 713.1,169.3 714.8,169.0 716.4,168.5 718.1,168.0 719.7,167.6 721.4,167.0 723.0,167.0 724.7,166.0 726.3,166.0 727.9,165.0 729.6,165.0 731.2,164.5 732.9,164.4 734.5,163.8 736.2,163.0 737.8,162.9 739.4,162.4 741.1,162.2 742.7,162.2 744.4,161.8 746.0,161.7 747.7,161.7 749.3,161.3 751.0,161.2 752.6,161.1 754.2,160.8 755.9,160.7 757.5,160.7 759.2,160.3 760.8,160.3 762.5,160.2 764.1,159.9 765.7,158.1 767.4,158.0 769.0,158.0 770.7,157.8 772.3,157.7 774.0,157.6 775.6,157.3 777.3,157.1 778.9,157.0 780.5,156.9 782.2,156.9 783.8,156.8 785.5,156.7 787.1,156.7 788.8,156.6 790.4,156.3 792.1,156.3 793.7,156.3 795.3,156.2 797.0,156.2 798.6,156.2 800.3,156.2 801.9,156.1 803.6,155.5 805.2,154.9 806.8,154.0 808.5,153.1 810.1,152.1 811.8,151.8 813.4,147.7 815.1,147.5 816.7,146.4 818.4,146.4 820.0,146.0" fill="none" stroke="#27231c" stroke-width="4" stroke-linecap="round" stroke-linejoin="round"/>
    <polyline points="72.0,322.0 73.6,322.0 75.3,322.0 76.9,322.0 78.6,322.0 80.2,321.9 81.9,321.7 83.5,321.7 85.2,321.7 86.8,321.7 88.4,321.7 90.1,321.7 91.7,321.7 93.4,321.7 95.0,321.7 96.7,321.7 98.3,321.7 99.9,321.7 101.6,321.6 103.2,321.6 104.9,321.6 106.5,321.6 108.2,321.5 109.8,321.5 111.5,321.5 113.1,321.5 114.7,321.5 116.4,321.4 118.0,321.4 119.7,321.4 121.3,321.1 123.0,321.1 124.6,321.1 126.3,321.0 127.9,321.0 129.5,320.7 131.2,320.7 132.8,320.6 134.5,320.6 136.1,320.5 137.8,320.4 139.4,320.4 141.0,320.1 142.7,320.1 144.3,320.1 146.0,320.0 147.6,320.0 149.3,320.0 150.9,320.0 152.6,320.0 154.2,320.0 155.8,320.0 157.5,319.9 159.1,319.9 160.8,319.9 162.4,319.9 164.1,319.9 165.7,319.9 167.3,319.9 169.0,319.9 170.6,319.9 172.3,319.9 173.9,319.9 175.6,319.9 177.2,319.9 178.9,319.9 180.5,319.9 182.1,319.8 183.8,319.8 185.4,319.8 187.1,319.8 188.7,319.8 190.4,319.8 192.0,319.8 193.7,319.8 195.3,319.7 196.9,319.7 198.6,319.7 200.2,319.7 201.9,319.7 203.5,319.7 205.2,319.7 206.8,319.7 208.4,319.7 210.1,319.7 211.7,319.7 213.4,319.7 215.0,319.7 216.7,319.7 218.3,319.7 220.0,319.7 221.6,319.6 223.2,319.6 224.9,319.5 226.5,319.5 228.2,319.5 229.8,319.5 231.5,319.5 233.1,319.5 234.8,319.5 236.4,319.5 238.0,319.5 239.7,319.5 241.3,319.4 243.0,319.4 244.6,319.4 246.3,319.4 247.9,319.4 249.5,319.4 251.2,319.4 252.8,319.4 254.5,319.4 256.1,319.4 257.8,319.4 259.4,319.4 261.1,319.4 262.7,319.4 264.3,319.4 266.0,319.3 267.6,319.3 269.3,319.3 270.9,319.3 272.6,319.3 274.2,319.3 275.9,319.3 277.5,319.3 279.1,319.3 280.8,319.3 282.4,319.2 284.1,319.2 285.7,319.2 287.4,319.2 289.0,319.2 290.6,319.1 292.3,319.1 293.9,319.1 295.6,319.1 297.2,319.1 298.9,319.1 300.5,319.1 302.2,319.1 303.8,319.1 305.4,319.1 307.1,319.1 308.7,319.1 310.4,319.1 312.0,319.1 313.7,319.1 315.3,319.1 316.9,319.1 318.6,319.0 320.2,319.0 321.9,319.0 323.5,319.0 325.2,319.0 326.8,319.0 328.5,319.0 330.1,318.9 331.7,318.9 333.4,318.9 335.0,318.9 336.7,318.9 338.3,318.9 340.0,318.8 341.6,318.7 343.3,318.6 344.9,318.5 346.5,318.4 348.2,318.4 349.8,318.4 351.5,318.4 353.1,318.4 354.8,318.4 356.4,318.2 358.0,318.2 359.7,318.2 361.3,318.2 363.0,318.2 364.6,318.2 366.3,318.2 367.9,318.2 369.6,318.2 371.2,318.2 372.8,318.1 374.5,318.1 376.1,318.1 377.8,317.8 379.4,317.8 381.1,317.8 382.7,317.8 384.4,317.7 386.0,317.7 387.6,317.7 389.3,317.7 390.9,317.7 392.6,317.5 394.2,317.5 395.9,317.5 397.5,317.0 399.1,317.0 400.8,317.0 402.4,317.0 404.1,317.0 405.7,317.0 407.4,317.0 409.0,316.9 410.7,316.9 412.3,316.9 413.9,316.9 415.6,316.9 417.2,316.9 418.9,316.9 420.5,316.9 422.2,316.9 423.8,316.9 425.5,316.9 427.1,316.9 428.7,316.8 430.4,316.6 432.0,316.6 433.7,316.6 435.3,316.6 437.0,316.6 438.6,316.6 440.2,316.6 441.9,316.6 443.5,316.6 445.2,316.6 446.8,316.6 448.5,316.6 450.1,316.6 451.8,316.6 453.4,315.7 455.0,315.7 456.7,315.7 458.3,315.7 460.0,315.7 461.6,315.6 463.3,315.6 464.9,315.6 466.5,315.6 468.2,315.5 469.8,314.6 471.5,314.6 473.1,314.6 474.8,314.6 476.4,314.6 478.1,314.6 479.7,314.6 481.3,314.6 483.0,314.5 484.6,314.5 486.3,314.5 487.9,314.5 489.6,314.5 491.2,314.0 492.9,314.0 494.5,313.5 496.1,313.5 497.8,313.0 499.4,312.9 501.1,312.5 502.7,312.5 504.4,312.0 506.0,312.0 507.6,311.5 509.3,311.5 510.9,311.0 512.6,310.9 514.2,310.5 515.9,310.4 517.5,310.0 519.2,309.9 520.8,309.5 522.4,309.4 524.1,308.9 525.7,308.9 527.4,308.4 529.0,308.4 530.7,307.9 532.3,307.9 534.0,307.4 535.6,307.4 537.2,306.9 538.9,306.9 540.5,306.8 542.2,306.8 543.8,306.7 545.5,306.7 547.1,306.7 548.7,306.7 550.4,306.7 552.0,306.7 553.7,306.6 555.3,306.6 557.0,306.6 558.6,306.6 560.3,306.6 561.9,306.5 563.5,306.4 565.2,306.4 566.8,306.4 568.5,306.4 570.1,306.4 571.8,306.4 573.4,306.4 575.1,306.3 576.7,306.2 578.3,306.2 580.0,306.2 581.6,306.2 583.3,306.2 584.9,306.2 586.6,306.2 588.2,306.2 589.8,306.2 591.5,306.1 593.1,306.1 594.8,306.1 596.4,306.1 598.1,306.0 599.7,306.0 601.4,305.9 603.0,305.9 604.6,305.9 606.3,305.9 607.9,305.9 609.6,305.9 611.2,305.8 612.9,305.8 614.5,305.8 616.1,305.8 617.8,305.8 619.4,305.8 621.1,305.7 622.7,305.7 624.4,305.7 626.0,305.7 627.7,305.7 629.3,305.7 630.9,305.6 632.6,305.6 634.2,305.6 635.9,305.6 637.5,305.6 639.2,305.6 640.8,305.6 642.5,305.6 644.1,305.5 645.7,305.4 647.4,305.4 649.0,305.4 650.7,305.4 652.3,305.4 654.0,305.4 655.6,305.4 657.2,305.4 658.9,305.3 660.5,305.3 662.2,305.3 663.8,305.3 665.5,305.3 667.1,305.3 668.8,305.3 670.4,305.2 672.0,305.2 673.7,305.2 675.3,305.1 677.0,305.1 678.6,305.0 680.3,304.9 681.9,304.8 683.6,304.8 685.2,304.8 686.8,304.8 688.5,304.8 690.1,304.8 691.8,304.7 693.4,304.7 695.1,304.7 696.7,304.7 698.3,304.7 700.0,304.7 701.6,304.7 703.3,304.6 704.9,304.6 706.6,304.6 708.2,304.6 709.9,304.6 711.5,304.5 713.1,304.5 714.8,304.5 716.4,304.4 718.1,304.4 719.7,304.4 721.4,304.3 723.0,304.3 724.7,304.3 726.3,304.3 727.9,304.2 729.6,304.2 731.2,304.2 732.9,304.2 734.5,304.2 736.2,304.1 737.8,304.1 739.4,304.1 741.1,304.1 742.7,304.1 744.4,304.1 746.0,304.1 747.7,304.1 749.3,304.0 751.0,304.0 752.6,304.0 754.2,304.0 755.9,304.0 757.5,304.0 759.2,304.0 760.8,304.0 762.5,304.0 764.1,304.0 765.7,303.9 767.4,303.8 769.0,303.8 770.7,303.8 772.3,303.8 774.0,303.8 775.6,303.8 777.3,303.8 778.9,303.8 780.5,303.8 782.2,303.8 783.8,303.8 785.5,303.8 787.1,303.8 788.8,303.8 790.4,303.8 792.1,303.8 793.7,303.8 795.3,303.7 797.0,303.7 798.6,303.7 800.3,303.7 801.9,303.7 803.6,303.7 805.2,303.7 806.8,302.8 808.5,301.9 810.1,300.9 811.8,300.9 813.4,296.9 815.1,296.9 816.7,296.8 818.4,296.8 820.0,296.8" fill="none" stroke="#8c5f32" stroke-width="4" stroke-linecap="round" stroke-linejoin="round"/>
    <polyline points="72.0,322.0 73.6,321.7 75.3,321.7 76.9,321.5 78.6,321.4 80.2,320.8 81.9,317.4 83.5,317.4 85.2,317.4 86.8,317.3 88.4,317.3 90.1,317.3 91.7,317.3 93.4,317.2 95.0,317.1 96.7,317.1 98.3,316.0 99.9,316.0 101.6,315.3 103.2,315.3 104.9,314.5 106.5,314.3 108.2,313.6 109.8,313.5 111.5,313.5 113.1,313.2 114.7,313.2 116.4,312.0 118.0,311.7 119.7,311.5 121.3,306.9 123.0,306.7 124.6,306.7 126.3,304.3 127.9,304.1 129.5,299.9 131.2,299.8 132.8,298.2 134.5,298.1 136.1,295.9 137.8,294.5 139.4,294.1 141.0,289.0 142.7,289.0 144.3,288.9 146.0,287.1 147.6,287.1 149.3,287.1 150.9,287.1 152.6,287.1 154.2,287.1 155.8,287.1 157.5,286.6 159.1,286.6 160.8,286.4 162.4,286.3 164.1,286.3 165.7,286.1 167.3,286.1 169.0,286.0 170.6,286.0 172.3,286.0 173.9,286.0 175.6,285.7 177.2,285.5 178.9,285.4 180.5,285.2 182.1,284.4 183.8,284.4 185.4,284.2 187.1,283.7 188.7,283.7 190.4,283.6 192.0,283.6 193.7,283.6 195.3,283.0 196.9,283.0 198.6,283.0 200.2,283.0 201.9,282.9 203.5,282.7 205.2,282.7 206.8,282.7 208.4,282.3 210.1,282.3 211.7,282.3 213.4,282.3 215.0,282.3 216.7,282.3 218.3,282.2 220.0,282.1 221.6,281.1 223.2,280.9 224.9,279.8 226.5,279.7 228.2,279.7 229.8,279.6 231.5,279.6 233.1,279.6 234.8,279.1 236.4,279.0 238.0,279.0 239.7,278.9 241.3,278.2 243.0,278.2 244.6,278.1 246.3,278.1 247.9,278.1 249.5,278.1 251.2,278.0 252.8,278.0 254.5,277.6 256.1,277.6 257.8,277.5 259.4,277.5 261.1,277.4 262.7,277.4 264.3,277.3 266.0,276.5 267.6,276.5 269.3,276.1 270.9,275.8 272.6,275.6 274.2,275.6 275.9,275.6 277.5,275.4 279.1,275.4 280.8,275.0 282.4,274.7 284.1,274.7 285.7,274.7 287.4,274.6 289.0,273.2 290.6,273.2 292.3,273.1 293.9,273.1 295.6,272.7 297.2,272.2 298.9,272.2 300.5,272.2 302.2,272.1 303.8,272.1 305.4,272.0 307.1,272.0 308.7,272.0 310.4,272.0 312.0,271.9 313.7,271.9 315.3,271.9 316.9,271.8 318.6,271.1 320.2,271.0 321.9,270.9 323.5,270.6 325.2,270.6 326.8,270.4 328.5,270.4 330.1,269.0 331.7,268.9 333.4,268.9 335.0,268.8 336.7,268.7 338.3,268.2 340.0,267.4 341.6,265.8 343.3,263.2 344.9,262.1 346.5,260.5 348.2,260.5 349.8,260.4 351.5,260.4 353.1,260.3 354.8,260.3 356.4,257.5 358.0,257.5 359.7,257.5 361.3,257.4 363.0,257.4 364.6,257.1 366.3,257.0 367.9,257.0 369.6,256.9 371.2,256.0 372.8,255.9 374.5,255.1 376.1,254.7 377.8,250.6 379.4,250.6 381.1,250.5 382.7,250.4 384.4,248.6 386.0,248.0 387.6,247.9 389.3,247.6 390.9,247.5 392.6,244.5 394.2,244.5 395.9,244.3 397.5,244.3 399.1,244.3 400.8,244.2 402.4,244.2 404.1,244.2 405.7,244.2 407.4,244.2 409.0,243.1 410.7,243.0 412.3,242.9 413.9,242.9 415.6,242.9 417.2,242.9 418.9,242.8 420.5,242.8 422.2,242.8 423.8,242.8 425.5,242.8 427.1,242.7 428.7,241.5 430.4,238.3 432.0,238.2 433.7,238.2 435.3,238.2 437.0,238.1 438.6,238.1 440.2,238.1 441.9,238.1 443.5,238.0 445.2,238.0 446.8,238.0 448.5,238.0 450.1,237.8 451.8,237.8 453.4,237.8 455.0,237.7 456.7,237.7 458.3,237.5 460.0,236.9 461.6,236.2 463.3,235.9 464.9,235.4 466.5,235.3 468.2,234.5 469.8,234.5 471.5,234.4 473.1,234.4 474.8,234.2 476.4,233.9 478.1,233.8 479.7,233.6 481.3,233.5 483.0,233.0 484.6,232.5 486.3,232.5 487.9,231.7 489.6,231.7 491.2,231.7 492.9,231.7 494.5,231.7 496.1,231.6 497.8,231.6 499.4,231.2 501.1,231.2 502.7,231.1 504.4,231.1 506.0,230.9 507.6,230.9 509.3,230.9 510.9,230.9 512.6,230.5 514.2,230.5 515.9,230.4 517.5,230.4 519.2,230.2 520.8,230.2 522.4,229.8 524.1,229.8 525.7,229.3 527.4,229.3 529.0,229.3 530.7,229.3 532.3,228.9 534.0,228.9 535.6,228.8 537.2,228.8 538.9,227.8 540.5,226.4 542.2,226.3 543.8,225.8 545.5,225.1 547.1,225.0 548.7,224.8 550.4,224.2 552.0,224.2 553.7,224.1 555.3,223.4 557.0,223.4 558.6,223.4 560.3,223.2 561.9,222.0 563.5,220.3 565.2,220.1 566.8,220.1 568.5,220.0 570.1,219.9 571.8,219.3 573.4,219.2 575.1,217.7 576.7,217.1 578.3,216.8 580.0,216.7 581.6,216.4 583.3,216.4 584.9,216.1 586.6,216.0 588.2,215.9 589.8,215.9 591.5,215.5 593.1,215.1 594.8,214.9 596.4,214.8 598.1,212.6 599.7,212.3 601.4,211.8 603.0,211.6 604.6,211.1 606.3,210.9 607.9,210.5 609.6,210.5 611.2,209.8 612.9,209.6 614.5,209.6 616.1,209.3 617.8,209.0 619.4,208.8 621.1,208.4 622.7,208.0 624.4,207.9 626.0,207.5 627.7,207.3 629.3,207.1 630.9,206.9 632.6,206.7 634.2,206.7 635.9,206.0 637.5,205.9 639.2,205.5 640.8,205.4 642.5,205.4 644.1,204.1 645.7,203.1 647.4,203.1 649.0,202.8 650.7,202.8 652.3,202.6 654.0,202.2 655.6,202.1 657.2,201.9 658.9,201.5 660.5,201.5 662.2,201.3 663.8,201.3 665.5,201.1 667.1,200.2 668.8,200.2 670.4,200.1 672.0,199.6 673.7,198.6 675.3,197.9 677.0,197.7 678.6,195.2 680.3,193.6 681.9,193.0 683.6,192.8 685.2,192.3 686.8,192.2 688.5,192.1 690.1,191.8 691.8,191.4 693.4,191.2 695.1,191.0 696.7,190.7 698.3,190.3 700.0,190.3 701.6,190.1 703.3,189.6 704.9,189.5 706.6,189.1 708.2,189.0 709.9,188.4 711.5,186.8 713.1,186.8 714.8,186.5 716.4,186.1 718.1,185.6 719.7,185.2 721.4,184.7 723.0,184.7 724.7,183.7 726.3,183.7 727.9,182.8 729.6,182.7 731.2,182.3 732.9,182.2 734.5,181.7 736.2,180.9 737.8,180.8 739.4,180.3 741.1,180.1 742.7,180.1 744.4,179.7 746.0,179.7 747.7,179.7 749.3,179.2 751.0,179.2 752.6,179.1 754.2,178.8 755.9,178.7 757.5,178.7 759.2,178.4 760.8,178.3 762.5,178.2 764.1,178.0 765.7,176.2 767.4,176.2 769.0,176.1 770.7,176.0 772.3,175.8 774.0,175.8 775.6,175.5 777.3,175.3 778.9,175.2 780.5,175.2 782.2,175.2 783.8,175.0 785.5,174.9 787.1,174.9 788.8,174.9 790.4,174.6 792.1,174.6 793.7,174.5 795.3,174.5 797.0,174.4 798.6,174.4 800.3,174.4 801.9,174.3 803.6,173.8 805.2,173.2 806.8,173.2 808.5,173.2 810.1,173.2 811.8,172.9 813.4,172.9 815.1,172.6 816.7,171.6 818.4,171.6 820.0,171.2" fill="none" stroke="#3f7558" stroke-width="4" stroke-linecap="round" stroke-linejoin="round"/>
    <text x="72" y="348" class="axis">06-17 03:59</text>
    <text x="820" y="348" class="axis" text-anchor="end">06-19 06:57</text>
  </g>
  <g>
    <rect x="72" y="360" width="16" height="16" rx="3" fill="#27231c"/><text x="96" y="373" class="label">Total 179,612</text>
    <rect x="254" y="360" width="16" height="16" rx="3" fill="#8c5f32"/><text x="278" y="373" class="label">Comments 25,737</text>
    <rect x="476" y="360" width="16" height="16" rx="3" fill="#3f7558"/><text x="500" y="373" class="label">Danmaku 153,875</text>
    <text x="720" y="373" class="label">Runs: 456</text>
  </g>
</svg>
